<?xml version="1.0" standalone="no"?>
<!DOCTYPE svg PUBLIC "-//W3C//DTD SVG 20010904//EN"
 "http://www.w3.org/TR/2001/REC-SVG-20010904/DTD/svg10.dtd">
<svg version="1.0" xmlns="http://www.w3.org/2000/svg"
 width="360.000000pt" height="360.000000pt" viewBox="0 0 360.000000 360.000000"
 preserveAspectRatio="xMidYMid meet">

<g transform="translate(0.000000,360.000000) scale(0.100000,-0.100000)"
fill="#000000" stroke="none">
<path d="M3095 3584 c-22 -8 -78 -28 -125 -44 -94 -33 -238 -84 -435 -155 -71
-26 -143 -51 -160 -56 -16 -5 -39 -13 -50 -18 -11 -5 -55 -22 -98 -36 -43 -14
-88 -30 -100 -35 -12 -5 -83 -30 -157 -55 -74 -26 -144 -51 -155 -56 -11 -4
-47 -18 -80 -29 -33 -12 -105 -37 -160 -56 -55 -20 -111 -40 -125 -44 -14 -5
-63 -23 -110 -40 -47 -17 -107 -39 -133 -48 -54 -17 -103 -59 -135 -115 l-22
-37 0 -907 c0 -499 -1 -907 -3 -909 -1 -1 -49 -4 -107 -7 -124 -6 -215 -34
-319 -96 -77 -47 -215 -183 -254 -251 -42 -73 -67 -166 -67 -244 0 -149 66
-247 210 -314 50 -23 67 -26 175 -25 110 0 127 3 208 33 194 72 357 222 433
400 18 43 19 83 22 981 l3 936 47 16 c26 8 103 36 172 60 69 25 141 50 160 57
19 6 44 15 55 20 11 5 79 29 150 54 72 25 162 57 200 71 39 14 108 39 155 55
47 16 137 47 200 70 63 23 151 55 195 70 44 15 132 47 195 69 63 23 116 41
118 41 1 0 2 -349 2 -775 l0 -775 -77 -1 c-134 -2 -180 -13 -295 -70 -166 -82
-281 -198 -346 -351 -23 -55 -26 -77 -27 -173 0 -129 12 -160 92 -236 59 -58
117 -86 203 -100 295 -48 639 171 734 466 15 46 16 173 14 1322 l-3 1271 -25
27 c-28 31 -78 55 -112 55 -13 -1 -41 -8 -63 -16z"/>
</g>
</svg>
