<?xml version="1.0" standalone="no"?>
<!DOCTYPE svg PUBLIC "-//W3C//DTD SVG 20010904//EN"
 "http://www.w3.org/TR/2001/REC-SVG-20010904/DTD/svg10.dtd">
<svg version="1.0" xmlns="http://www.w3.org/2000/svg"
 width="512.000000pt" height="512.000000pt" viewBox="0 0 512.000000 512.000000"
 preserveAspectRatio="xMidYMid meet">

<g transform="translate(0.000000,512.000000) scale(0.100000,-0.100000)"
fill="#000000" stroke="none">
<path d="M2681 4894 c-117 -31 -250 -159 -321 -309 -96 -203 -98 -348 -11
-920 l49 -320 -116 -115 c-65 -63 -166 -162 -225 -220 -126 -122 -241 -269
-296 -378 -21 -43 -58 -136 -81 -207 -52 -159 -63 -298 -36 -432 60 -295 281
-534 600 -648 130 -47 237 -65 381 -65 l123 0 12 -131 c25 -258 -8 -412 -113
-527 -144 -156 -377 -102 -377 88 0 55 30 73 119 74 76 1 123 23 158 74 67
101 17 241 -111 306 -141 73 -334 16 -432 -127 -65 -95 -79 -147 -79 -297 1
-123 3 -141 28 -203 74 -187 207 -291 403 -316 246 -31 493 83 613 282 39 67
74 151 98 238 33 119 20 477 -23 620 -3 11 11 24 46 43 78 42 190 137 244 206
98 125 144 250 153 420 14 277 -99 470 -349 596 -69 35 -177 68 -260 80 l-48
6 0 47 c0 25 -13 120 -28 211 l-28 165 98 114 c271 313 340 507 340 956 0 179
-18 261 -86 400 -106 216 -285 332 -445 289z m165 -139 c135 -78 239 -286 251
-498 7 -125 -12 -354 -38 -456 -58 -232 -231 -461 -598 -793 -466 -422 -562
-553 -577 -788 -15 -238 88 -449 282 -579 254 -171 667 -151 870 41 133 126
177 267 139 448 -20 93 -33 117 -100 178 -102 93 -235 138 -390 129 -182 -10
-320 -101 -365 -242 -20 -64 -49 -115 -65 -115 -39 0 -31 129 14 223 133 279
504 383 819 230 190 -93 294 -261 294 -476 0 -162 -52 -299 -159 -416 -94
-105 -207 -175 -363 -227 -80 -27 -95 -28 -260 -28 -152 0 -186 3 -260 23
-233 63 -413 198 -533 400 -112 187 -122 320 -46 586 69 245 146 355 472 675
231 227 340 349 424 475 61 91 130 234 160 332 23 77 27 105 27 233 1 165 -18
252 -74 328 -42 58 -71 70 -115 49 -43 -20 -70 -72 -86 -162 -18 -104 -7 -410
21 -572 l22 -132 -51 -74 c-29 -41 -60 -82 -70 -91 -18 -16 -19 -13 -25 56 -4
40 -19 168 -33 283 -47 379 -35 603 41 752 51 102 160 210 234 234 38 11 90 1
138 -26z m-117 -397 c74 -157 68 -319 -21 -551 -16 -42 -33 -75 -37 -72 -8 4
-26 166 -36 325 -6 102 9 295 26 333 19 41 35 33 68 -35z m1 -1438 c12 -80 24
-159 27 -176 l5 -31 -58 -7 c-32 -4 -67 -9 -79 -12 -19 -5 -21 4 -40 118 l-21
123 71 66 c38 37 71 66 72 65 0 0 11 -66 23 -146z m-211 -235 c1 -15 -16 -28
-68 -54 -170 -83 -294 -242 -321 -412 -10 -68 -2 -148 20 -190 15 -28 69 -59
103 -59 67 0 113 45 148 146 25 72 77 139 135 175 19 11 36 20 38 18 1 -2 19
-134 40 -294 21 -159 41 -307 46 -327 l8 -38 -92 0 c-367 1 -606 252 -565 595
18 148 111 281 359 512 l125 117 12 -85 c6 -46 12 -93 12 -104z m276 -365 c6
-10 84 -523 88 -580 2 -19 -6 -28 -34 -42 -20 -9 -47 -20 -61 -23 l-24 -6 -33
218 c-36 232 -65 397 -76 426 -6 15 0 17 63 17 39 0 74 -5 77 -10z m174 -70
c72 -53 102 -121 103 -238 0 -73 -16 -124 -59 -181 l-27 -35 -12 74 c-7 41
-24 143 -38 225 -36 210 -37 205 33 155z m21 -1027 c34 -174 38 -338 11 -444
-29 -117 -79 -213 -152 -293 -50 -55 -78 -75 -153 -111 -111 -53 -186 -69
-308 -63 -76 4 -104 10 -152 33 -107 51 -175 142 -206 274 -17 72 -8 201 19
272 44 117 151 199 259 199 119 0 206 -97 161 -181 -16 -30 -66 -48 -103 -38
-81 23 -150 -2 -190 -70 -27 -47 -27 -141 0 -202 72 -158 236 -217 397 -142
130 62 228 196 263 363 20 92 13 264 -14 388 -14 59 -16 85 -8 88 35 13 133
42 142 43 7 1 21 -47 34 -116z"/>
</g>
</svg>
