<?xml version="1.0" standalone="no"?>
<!DOCTYPE svg PUBLIC "-//W3C//DTD SVG 20010904//EN"
 "http://www.w3.org/TR/2001/REC-SVG-20010904/DTD/svg10.dtd">
<svg version="1.0" xmlns="http://www.w3.org/2000/svg"
 width="5933.000000pt" height="3957.000000pt" viewBox="0 0 5933.000000 3957.000000"
 preserveAspectRatio="xMidYMid meet">

<g transform="translate(0.000000,3957.000000) scale(0.100000,-0.100000)"
fill="#000000" stroke="none">
<path d="M29461 34684 c0 -2687 -1 -4887 -3 -4889 -2 -1 -142 -10 -313 -20
-372 -19 -509 -30 -675 -50 -69 -9 -141 -18 -160 -20 -299 -36 -796 -135
-1130 -223 -341 -91 -744 -226 -1045 -352 -55 -23 -104 -46 -110 -51 -5 -5
-15 -9 -23 -9 -42 0 -561 -251 -812 -392 -169 -96 -377 -218 -460 -271 -244
-155 -629 -416 -674 -459 -11 -10 -23 -18 -27 -18 -3 0 -22 -13 -40 -30 -19
-16 -37 -30 -40 -30 -4 0 -36 -24 -71 -52 -36 -29 -82 -66 -104 -83 -45 -35
-137 -109 -167 -135 -12 -10 -56 -47 -97 -81 -66 -54 -141 -120 -260 -225
-174 -154 -559 -533 -741 -729 -254 -273 -570 -661 -763 -936 -62 -88 -343
-508 -385 -574 -85 -136 -131 -222 -131 -247 0 -24 -4 -28 -27 -28 -16 0 -33
-4 -39 -8 -18 -12 -177 -313 -278 -527 -513 -1090 -787 -2114 -891 -3335 -22
-255 -31 -835 -16 -1025 12 -151 45 -389 80 -566 23 -123 27 -319 5 -319 -8 0
-14 -7 -14 -15 0 -8 7 -15 15 -15 8 0 15 -4 15 -10 0 -5 -4 -10 -10 -10 -6 0
-10 -28 -10 -62 -1 -35 -7 -74 -14 -87 -7 -13 -11 -32 -9 -42 3 -10 0 -33 -6
-50 -6 -17 -7 -38 -2 -46 10 -19 -11 -115 -27 -121 -7 -2 -12 -13 -11 -25 0
-21 1 -21 9 -2 6 14 8 3 7 -37 0 -32 -5 -54 -10 -51 -5 3 -7 -8 -6 -25 2 -16
-2 -37 -10 -45 -7 -9 -11 -29 -10 -44 2 -15 0 -34 -4 -41 -5 -6 -4 -12 2 -12
16 0 13 -30 -3 -36 -11 -4 -13 -12 -6 -30 6 -15 6 -34 0 -49 -5 -14 -7 -38 -4
-54 3 -16 1 -38 -5 -49 -8 -14 -8 -23 -1 -27 8 -5 7 -12 -1 -22 -10 -11 -10
-16 0 -22 9 -6 9 -17 -2 -49 -8 -23 -12 -52 -10 -66 3 -14 0 -39 -5 -55 -7
-18 -7 -33 -2 -36 5 -3 7 -25 4 -49 -4 -27 -2 -46 5 -50 6 -4 11 0 11 11 1 17
1 17 12 -1 8 -14 7 -21 -3 -27 -35 -21 -59 -56 -59 -84 0 -9 -7 -18 -16 -22
-8 -3 -13 -11 -10 -18 5 -14 -15 -89 -27 -101 -4 -4 -7 -18 -7 -31 0 -14 -4
-21 -10 -18 -6 4 -23 -23 -40 -59 -16 -36 -35 -66 -41 -66 -8 0 -5 -7 5 -19
17 -19 17 -20 -4 -38 -24 -20 -53 -81 -44 -94 3 -5 -1 -9 -9 -9 -10 0 -16 -17
-20 -57 -4 -43 -11 -62 -26 -72 -25 -16 -27 -31 -5 -31 8 0 12 -5 9 -10 -4 -6
-14 -9 -23 -8 -17 3 -17 -1 -5 -45 4 -13 1 -16 -10 -11 -9 3 -18 11 -20 17 -2
7 -3 2 -1 -9 2 -13 -2 -24 -11 -28 -13 -4 -13 -10 0 -41 9 -19 11 -35 6 -35
-10 0 61 -216 159 -480 38 -102 92 -248 121 -325 29 -77 58 -156 65 -175 7
-19 28 -75 47 -125 19 -49 109 -288 200 -530 91 -242 221 -584 287 -760 67
-176 166 -437 220 -580 159 -422 261 -692 380 -1005 62 -162 120 -317 130
-345 10 -27 94 -248 185 -490 209 -550 363 -965 500 -1345 58 -162 112 -311
120 -330 27 -69 127 -336 138 -370 6 -19 15 -38 20 -41 5 -3 9 -10 8 -15 0 -5
3 -20 6 -32 4 -19 8 -21 15 -10 7 9 8 5 5 -14 -3 -18 2 -33 14 -44 10 -9 15
-23 12 -32 -4 -10 -2 -13 5 -8 7 4 12 2 12 -5 0 -10 3 -10 12 -1 9 9 16 4 32
-21 11 -17 19 -40 17 -49 -1 -10 3 -18 8 -18 6 0 11 5 11 10 0 15 27 12 33 -4
3 -8 16 -16 28 -18 12 -2 24 -9 27 -16 2 -8 -3 -10 -15 -6 -17 5 -17 5 0 -6 9
-6 27 -8 40 -4 19 6 20 5 8 -9 -7 -10 -10 -24 -6 -34 6 -16 8 -15 16 5 8 22
10 22 33 7 13 -9 27 -23 30 -31 3 -8 12 -14 21 -14 8 0 15 -6 15 -12 0 -9 4
-8 10 2 8 12 10 11 10 -8 0 -12 7 -25 15 -27 8 -3 23 -8 33 -12 9 -3 19 -7 22
-8 3 -1 13 -5 23 -9 9 -5 24 -6 32 -2 15 5 57 -27 53 -41 -1 -5 7 -10 17 -11
10 -2 37 -14 60 -26 23 -13 63 -29 89 -37 29 -8 46 -19 46 -29 0 -17 85 -54
101 -45 5 3 19 -1 32 -10 13 -8 27 -12 30 -8 4 3 7 1 7 -7 0 -10 3 -10 15 0 9
7 16 11 18 9 1 -2 7 -13 13 -23 6 -11 24 -24 40 -29 16 -5 36 -11 44 -14 8 -4
22 -6 30 -5 10 1 11 0 3 -4 -7 -3 -13 -10 -13 -15 0 -12 44 -11 56 1 13 13 44
2 44 -15 0 -9 11 -12 36 -10 24 3 37 -1 41 -11 6 -17 33 -19 33 -3 0 8 4 8 13
2 6 -6 31 -9 55 -7 39 2 58 -9 30 -19 -7 -2 -3 -3 8 -1 12 2 27 -3 34 -11 9
-10 27 -14 64 -11 49 3 113 -12 90 -21 -7 -2 -10 -13 -7 -23 4 -15 14 -20 39
-20 18 0 35 -4 39 -9 3 -5 18 -12 33 -16 31 -6 61 -48 64 -89 3 -31 11 -31
151 15 49 16 97 29 108 29 23 0 24 27 4 120 -9 44 -10 68 -4 75 7 7 10 7 8 0
-6 -20 12 -54 31 -60 20 -6 35 -38 25 -54 -9 -16 9 -20 23 -5 8 9 9 14 2 14
-6 0 -4 12 5 31 15 28 18 29 29 13 10 -14 15 -14 21 -4 5 9 4 15 -3 18 -7 2
-12 7 -12 11 0 10 58 6 84 -5 14 -5 24 -1 38 16 14 18 22 20 30 12 17 -17 25
-15 32 11 5 17 8 19 15 8 12 -18 24 3 16 29 -5 15 -3 18 9 14 9 -3 16 -12 16
-20 0 -8 5 -14 10 -14 6 0 10 9 10 21 0 12 8 23 19 26 66 17 55 184 -36 532
-25 97 -47 187 -50 201 -3 23 -3 23 12 -5 8 -16 13 -22 10 -12 -2 9 1 17 7 17
7 0 9 -14 5 -40 -5 -42 7 -64 16 -29 3 12 10 18 17 14 6 -4 8 -16 4 -28 -6
-19 -5 -20 10 -5 9 9 16 21 16 26 0 10 30 7 65 -8 11 -4 29 -11 40 -14 19 -6
19 -5 3 8 -27 20 -22 38 10 34 15 -2 32 3 39 12 11 13 12 13 13 -2 0 -23 9
-23 25 -1 12 16 15 16 34 -7 11 -14 20 -28 21 -32 0 -4 11 -19 25 -34 22 -23
25 -24 25 -8 0 45 21 89 47 102 15 6 33 12 40 12 7 0 10 7 6 17 -5 12 -2 15 9
10 9 -3 23 2 34 14 9 10 23 19 31 19 7 0 13 8 13 17 0 9 3 13 8 9 4 -4 7 -13
7 -19 0 -6 25 -15 55 -21 56 -12 98 -34 96 -51 0 -5 13 -9 29 -10 23 0 31 -5
33 -23 4 -26 10 -27 34 -6 16 16 18 16 24 0 3 -9 15 -16 26 -16 12 0 18 -6 16
-17 -2 -14 3 -17 20 -15 27 4 30 -18 2 -25 -31 -8 -25 -31 7 -25 21 4 25 2 20
-11 -5 -13 -1 -15 23 -10 19 3 30 1 30 -6 0 -6 7 -11 15 -11 8 0 19 -16 25
-40 6 -22 14 -40 19 -40 12 0 35 -52 32 -72 -4 -30 19 -20 33 13 l13 31 16
-22 c11 -17 23 -21 41 -18 14 3 26 2 26 -1 0 -3 9 -12 20 -19 16 -10 24 -10
41 0 21 13 21 20 3 112 -4 17 -2 26 4 22 5 -3 12 -19 15 -35 5 -24 14 -32 39
-39 42 -11 209 -7 234 5 11 6 53 18 94 28 74 17 181 61 210 87 39 33 60 72 60
110 l0 39 63 -8 c114 -15 302 0 356 27 9 4 36 16 61 25 227 87 393 248 467
452 44 121 56 198 56 358 0 199 -20 353 -94 735 -75 387 -238 937 -439 1480
-40 107 -112 312 -162 455 -49 143 -120 348 -158 455 -37 107 -75 215 -83 240
-19 54 -63 175 -150 410 -36 97 -90 247 -120 335 -31 88 -74 210 -95 270 -62
176 -204 521 -337 825 -160 363 -200 453 -298 660 -19 41 -46 100 -60 130 -95
211 -399 825 -488 985 -34 61 -74 136 -91 168 -18 36 -33 55 -40 51 -7 -5 -9
-2 -6 8 8 18 -59 153 -75 153 -7 0 -11 8 -9 18 4 22 -15 22 -22 0 -3 -10 -4
-1 -1 20 3 31 0 40 -20 53 -15 10 -21 21 -18 34 6 23 -40 105 -81 144 -17 17
-23 27 -13 23 9 -3 17 -2 17 3 0 10 -20 25 -35 25 -5 0 -9 15 -7 33 3 31 -11
45 -21 20 -3 -8 -6 -6 -6 5 -1 9 -5 17 -11 17 -5 0 -10 4 -10 9 0 6 -14 31
-31 56 -17 25 -29 49 -26 52 3 2 13 -10 23 -29 10 -19 19 -28 22 -20 2 7 -3
21 -11 30 -8 9 -22 34 -32 54 -9 20 -22 35 -29 32 -6 -2 -19 9 -29 26 -12 20
-14 30 -6 30 8 0 6 6 -4 18 -10 10 -17 23 -17 29 0 6 -12 16 -27 21 -16 6 -22
11 -15 11 6 1 12 8 12 17 0 11 -6 13 -19 9 -15 -4 -18 -2 -15 12 3 11 -6 29
-24 46 -21 20 -28 35 -24 49 4 17 2 20 -13 15 -13 -6 -16 -3 -13 11 3 12 -2
23 -13 31 -11 6 -19 20 -19 30 0 11 -9 21 -21 24 -14 4 -20 11 -16 20 3 8 -3
24 -14 35 -10 12 -19 26 -19 31 0 6 -7 8 -15 5 -11 -5 -15 1 -15 20 0 18 -4
24 -15 20 -8 -4 -15 -1 -15 5 0 6 5 11 12 11 6 0 8 3 4 7 -4 4 -15 8 -24 8
-11 0 -16 7 -15 21 2 17 -2 21 -16 17 -11 -3 -21 2 -24 11 -4 9 -2 16 4 16 6
0 7 5 4 10 -3 6 -15 10 -25 10 -11 0 -24 9 -31 21 -10 19 -9 20 13 14 15 -5
-7 22 -62 76 -97 96 -201 179 -224 179 -9 0 -15 5 -13 11 1 6 -18 22 -43 35
-25 13 -49 27 -55 32 -5 4 -17 11 -25 15 -8 4 -28 16 -45 26 -16 11 -48 20
-70 20 -25 1 -35 4 -27 9 18 12 -73 31 -170 37 -136 8 -281 -44 -435 -156 -32
-23 -113 -98 -181 -166 l-124 -125 -22 21 c-23 22 -83 47 -92 38 -3 -3 8 -8
24 -12 17 -3 38 -15 48 -27 l19 -21 -32 17 c-18 9 -58 19 -90 22 -49 5 -69 2
-128 -22 -78 -31 -171 -79 -189 -97 -35 -36 -66 -87 -66 -108 l0 -24 -25 28
c-32 34 -37 34 -25 2 6 -16 6 -25 0 -25 -6 0 -10 6 -10 14 0 7 -9 16 -20 19
-18 5 -25 -4 -21 -27 3 -13 -41 -56 -51 -50 -4 3 -6 9 -3 14 3 5 1 11 -5 15
-5 3 -10 -2 -10 -12 0 -12 -15 -24 -43 -36 -40 -17 -45 -24 -114 -165 -78
-158 -151 -313 -202 -430 l-32 -73 26 -107 c14 -59 42 -154 61 -212 37 -117
39 -124 23 -114 -8 4 -9 -1 -5 -17 7 -24 7 -24 -9 -4 -9 11 -14 28 -11 38 2 9
1 15 -4 12 -4 -3 -47 84 -95 193 -138 311 -265 654 -304 822 -11 47 -29 121
-40 165 -29 110 -75 330 -86 415 -3 19 -10 59 -15 89 -6 30 -10 81 -10 112 0
32 -5 61 -10 64 -8 5 -7 11 0 20 7 8 9 23 5 34 -7 25 -8 179 -1 276 3 39 8
111 11 160 3 50 10 124 15 165 5 41 14 152 20 245 6 94 15 197 20 230 5 33 12
98 15 145 7 88 11 122 44 325 37 227 60 351 106 555 54 243 48 217 75 310 12
41 33 113 46 160 14 47 42 140 64 207 22 67 40 131 40 141 0 10 4 22 9 27 4 6
20 44 34 85 62 179 134 365 193 498 13 29 24 55 24 58 0 7 36 83 141 303 49
101 89 188 89 192 0 5 4 9 8 9 4 0 35 52 67 116 48 93 61 111 67 95 8 -24 4
-92 -6 -89 -14 6 -29 -33 -17 -45 6 -6 11 -23 11 -39 0 -20 -4 -26 -15 -22 -8
4 -15 1 -15 -5 0 -6 5 -11 11 -11 5 0 7 -5 3 -11 -3 -6 0 -15 7 -20 11 -7 10
-13 -9 -27 -12 -10 -25 -30 -27 -44 -3 -15 -10 -40 -16 -54 -7 -21 -7 -29 3
-35 16 -10 -3 -46 -22 -41 -8 2 -10 -3 -6 -13 3 -9 6 -21 6 -26 0 -21 29 -7
38 19 l10 27 1 -28 c1 -16 -5 -35 -11 -42 -35 -39 -36 -41 -22 -60 18 -24 18
-36 0 -29 -16 6 -50 -38 -60 -78 -7 -29 -13 -33 -33 -20 -14 9 6 82 23 82 14
0 56 99 50 117 -10 25 -25 11 -56 -52 -28 -56 -31 -52 -13 23 5 23 4 25 -9 15
-29 -25 -70 -112 -62 -136 4 -12 10 -24 14 -27 4 -3 -3 -27 -16 -54 -13 -28
-24 -55 -24 -62 0 -6 -7 -17 -16 -25 -12 -10 -11 -2 5 42 23 61 25 69 12 69
-5 0 -21 -21 -36 -46 -25 -42 -26 -50 -16 -85 11 -35 9 -44 -19 -100 -16 -34
-30 -66 -30 -71 0 -5 -7 -26 -16 -46 -37 -82 -43 -98 -49 -125 -4 -15 -12 -30
-18 -34 -7 -4 -8 0 -2 13 13 30 18 104 7 104 -11 0 -22 -33 -22 -66 0 -12 -11
-42 -25 -65 -25 -43 -65 -158 -65 -185 0 -26 16 -14 32 24 9 20 23 60 32 87
19 60 36 89 36 65 0 -9 -4 -20 -8 -25 -5 -6 -15 -30 -22 -55 -8 -25 -22 -63
-31 -85 -10 -22 -22 -56 -28 -75 -5 -19 -26 -80 -45 -135 -20 -55 -36 -110
-36 -122 0 -12 -5 -25 -12 -29 -8 -5 -9 4 -5 34 8 46 -9 69 -18 25 -4 -15 -10
-37 -15 -48 -9 -22 -44 -147 -65 -235 -7 -30 -21 -81 -30 -112 -16 -53 -16
-58 -1 -73 9 -9 14 -21 11 -25 -5 -9 -32 -117 -60 -245 -8 -36 -13 -49 -14
-32 -2 44 -19 31 -26 -20 -4 -27 -10 -61 -15 -78 -4 -16 -11 -49 -14 -72 -5
-35 -3 -43 9 -43 11 0 14 -7 10 -25 -3 -14 -7 -36 -10 -50 -3 -14 -1 -25 5
-25 5 0 10 7 10 16 0 8 5 12 11 8 7 -4 9 0 5 14 -4 11 -1 30 6 41 10 17 9 23
-5 39 -22 24 -23 82 -2 82 11 0 15 -12 16 -42 l2 -43 9 55 c5 30 14 64 18 75
5 11 16 56 25 100 10 44 22 86 27 92 6 7 7 24 4 37 -4 15 -1 26 6 28 8 3 12
25 12 60 0 40 4 54 12 51 8 -3 11 2 7 16 -3 12 -1 27 4 34 20 25 66 186 58
204 -6 15 -10 12 -19 -18 -11 -36 -36 -43 -36 -11 0 37 59 199 60 165 0 -23
18 -14 24 12 4 15 11 22 20 19 14 -5 36 42 36 77 0 11 4 19 9 19 5 0 12 17 16
37 4 20 13 46 21 57 8 11 14 29 14 39 0 9 7 34 17 55 9 20 15 43 14 50 -1 8 2
19 8 26 6 7 26 55 45 107 18 52 48 124 65 161 17 36 31 71 31 78 0 6 9 24 21
39 18 24 19 32 9 51 -10 18 -7 31 15 78 15 31 33 64 40 72 7 8 18 33 25 55 17
54 23 59 50 35 13 -11 27 -20 32 -20 5 0 6 -5 2 -11 -5 -8 -9 -8 -14 1 -6 9
-9 9 -16 -1 -4 -7 -3 -14 4 -17 24 -8 12 -32 -16 -32 -21 0 -32 -7 -41 -26 -6
-14 -9 -30 -6 -35 4 -5 1 -17 -4 -26 -8 -14 -11 -15 -11 -3 -1 8 -8 -5 -17
-30 -11 -33 -12 -45 -3 -48 7 -3 3 -10 -10 -19 -11 -8 -20 -22 -19 -31 1 -10
0 -28 -1 -42 -1 -21 -3 -22 -9 -7 -6 17 -8 16 -19 -8 -7 -14 -9 -38 -5 -53 6
-25 5 -26 -12 -12 -17 14 -18 13 -12 -9 4 -17 1 -28 -10 -36 -11 -8 -17 -29
-19 -56 -2 -64 -3 -65 -19 -43 -13 18 -14 18 -8 -5 3 -14 1 -26 -7 -31 -10 -6
-10 -11 1 -23 12 -13 17 -8 36 32 11 26 27 67 34 92 7 24 19 50 26 57 7 7 13
18 13 23 0 30 327 677 361 714 5 5 9 21 9 36 0 22 6 29 30 34 35 8 34 4 16 41
-12 24 -38 146 -74 354 -9 52 11 125 45 162 20 23 37 52 115 189 7 13 19 28
26 32 7 5 10 12 8 16 -3 5 6 19 19 31 14 13 25 27 25 31 0 11 111 174 121 177
5 2 9 9 9 16 0 7 22 43 50 80 27 37 52 77 56 90 3 13 16 29 30 36 13 8 24 18
24 24 0 7 14 26 30 45 17 18 28 37 25 42 -4 5 1 9 10 9 10 0 15 6 12 13 -3 8
-1 20 5 28 8 11 9 10 4 -3 -3 -10 -2 -18 3 -18 14 0 20 37 8 49 -6 6 -7 14 -3
18 11 12 46 -39 46 -68 0 -44 48 -343 59 -371 9 -24 16 -28 51 -28 49 0 59 10
169 160 89 124 136 180 248 298 45 48 83 92 84 97 1 9 287 284 457 440 36 33
95 88 131 123 35 34 68 62 73 62 8 0 171 132 213 172 11 11 69 58 130 104 60
47 114 92 118 100 5 8 19 19 31 24 29 11 216 151 216 161 0 5 15 15 33 22 17
8 63 36 101 63 122 87 141 100 156 107 8 3 53 31 100 61 74 47 165 101 300
179 157 90 497 260 656 327 54 23 104 46 109 50 6 4 60 27 120 50 61 24 129
51 152 61 23 11 45 19 48 19 4 0 21 6 38 14 76 32 221 79 592 190 28 8 68 18
90 22 22 4 71 17 108 30 37 13 73 21 80 19 7 -3 55 7 107 21 145 38 232 57
263 57 15 0 27 4 27 8 0 5 24 9 54 9 30 0 57 4 60 8 3 5 26 9 51 10 25 0 67 5
93 11 64 15 353 51 407 51 24 0 47 5 51 11 3 6 16 8 28 6 11 -3 77 -2 146 3
349 24 695 29 713 11 9 -9 13 -113 17 -389 3 -207 6 -4642 7 -9854 1 -5213 4
-9481 7 -9486 3 -5 7 -1300 8 -2878 2 -1578 4 -3437 6 -4131 l2 -1263 14920 0
14920 0 0 19785 0 19785 -14935 0 -14935 0 1 -4886z m-92 -4955 c-19 -11 34
-23 68 -14 24 6 26 8 10 16 -9 6 -21 8 -26 4 -5 -3 -13 0 -17 6 -5 9 1 10 22
5 16 -4 38 -8 49 -8 17 0 20 -6 16 -44 -1 -24 1 -44 6 -44 4 0 9 18 9 40 1 23
3 42 5 45 5 4 76 7 132 6 23 -1 36 -5 32 -11 -4 -6 6 -10 22 -10 23 0 25 2 13
11 -11 8 -8 9 15 4 17 -3 44 -8 60 -10 l30 -4 -30 8 c-29 8 -28 9 15 11 25 2
52 3 60 2 165 -11 185 -14 202 -29 17 -15 18 -15 18 0 0 13 9 17 35 17 19 0
38 1 42 3 4 1 7 -11 8 -28 0 -25 4 -31 28 -33 15 -2 27 1 27 7 0 6 -9 11 -20
11 -11 0 -20 5 -20 10 0 7 17 9 47 6 26 -4 52 -1 59 5 8 7 14 7 19 -1 4 -6 20
-8 40 -4 19 3 35 1 39 -5 9 -14 96 -15 96 -1 0 6 7 10 17 10 15 0 15 -2 -1
-19 -25 -28 -17 -39 21 -29 23 6 31 13 27 23 -4 8 -1 15 5 15 6 0 11 -12 11
-27 0 -16 7 -37 16 -48 14 -19 15 -19 20 3 8 28 31 29 39 1 6 -17 14 -20 51
-18 24 2 46 0 50 -4 11 -11 44 -8 44 4 0 6 -9 13 -19 16 -21 5 -35 29 -25 44
9 15 27 10 20 -6 -4 -10 1 -15 15 -15 11 0 18 4 14 9 -3 5 -1 12 5 16 5 3 10
0 10 -7 0 -13 65 -15 142 -5 28 4 30 -16 2 -27 -19 -7 -18 -36 1 -36 8 0 15 5
15 11 0 26 28 38 86 34 33 -2 61 -4 63 -4 2 -1 -2 -8 -9 -16 -10 -12 -10 -15
4 -15 9 0 16 5 16 10 0 7 7 7 20 0 27 -15 17 -28 -26 -36 l-36 -7 42 -24 c23
-14 50 -23 61 -20 11 3 19 0 19 -8 0 -15 41 -28 53 -16 17 17 2 46 -21 44 -24
-3 -62 24 -62 44 0 9 19 13 66 13 48 0 65 -3 62 -12 -3 -7 -10 -14 -16 -14
-45 -5 -46 -6 -22 -14 14 -4 42 -8 63 -9 30 -1 37 -5 37 -21 0 -17 -7 -20 -40
-20 -22 0 -40 -5 -40 -11 0 -6 17 -9 43 -7 l42 3 3 45 c2 33 0 41 -8 30 -9
-13 -11 -13 -19 0 -20 31 -3 33 97 15 9 -2 43 -6 74 -10 52 -7 56 -9 47 -26
-5 -11 -8 -19 -5 -19 2 0 11 -3 20 -6 11 -4 16 0 16 12 0 9 3 15 6 11 10 -9
-19 -67 -33 -67 -7 0 -13 10 -13 23 0 34 -21 59 -40 47 -10 -7 -11 -13 -5 -17
22 -16 32 -56 21 -80 -11 -23 -30 -28 -61 -16 -14 5 -11 9 16 24 l34 18 -32 1
c-18 0 -36 1 -40 3 -5 1 -9 -8 -11 -20 -4 -29 -18 -29 -33 -1 -11 20 -12 20
-21 3 -7 -11 -13 -14 -17 -6 -4 6 -29 13 -57 16 l-49 5 39 -10 c57 -15 56 -20
-2 -20 -32 0 -56 6 -66 15 -23 24 -63 35 -98 28 -28 -6 -30 -7 -13 -15 16 -7
15 -7 -5 -3 -14 2 -35 5 -47 5 -20 0 -23 5 -23 38 0 21 7 47 15 58 19 25 19
34 0 34 -8 0 -15 -9 -15 -20 0 -11 -4 -28 -10 -38 -5 -9 -14 -29 -20 -44 -10
-29 -30 -38 -30 -14 0 10 -12 12 -50 8 -39 -4 -55 -1 -70 13 -13 12 -24 15
-32 9 -17 -12 -180 -5 -173 7 4 5 19 9 35 9 16 0 32 5 36 11 4 7 -4 10 -22 9
-52 -4 -64 0 -64 18 0 14 -2 15 -9 2 -6 -8 -7 -18 -5 -22 3 -4 -9 -8 -25 -8
-17 0 -31 -5 -31 -10 0 -7 14 -8 38 -4 27 5 34 3 27 -5 -6 -6 -33 -13 -60 -17
-44 -5 -48 -4 -32 9 9 8 17 21 17 30 0 18 -27 30 -35 17 -4 -6 1 -10 9 -10 9
0 16 -4 16 -10 0 -17 -26 -11 -45 10 -13 14 -22 17 -29 10 -15 -15 -36 -12
-36 5 0 7 8 18 18 24 12 7 14 13 6 21 -8 8 -14 7 -24 -5 -7 -8 -19 -15 -26
-15 -20 0 -17 -14 5 -34 15 -13 28 -16 53 -11 24 5 29 4 18 -4 -8 -6 -32 -11
-52 -11 -31 0 -38 4 -38 20 0 11 -4 20 -10 20 -5 0 -10 9 -10 21 0 15 -5 20
-22 17 -33 -5 -35 -36 -3 -44 14 -3 23 -9 20 -12 -9 -9 -157 -4 -167 6 -6 6
-22 7 -41 1 -41 -12 -158 -11 -177 1 -9 5 -19 5 -27 -2 -9 -7 -17 -7 -26 1 -8
6 -17 8 -20 5 -7 -7 -333 -8 -344 -1 -5 2 -32 1 -60 -2 -29 -4 -58 -4 -65 1
-9 5 -6 8 10 8 12 0 22 5 22 10 0 11 -11 13 -34 4 -9 -3 -16 -12 -16 -20 0
-19 -20 -17 -36 4 -13 16 -15 16 -29 -2 -12 -16 -29 -19 -110 -20 -52 -1 -95
0 -95 4 0 7 -188 -4 -196 -13 -4 -4 3 -7 16 -7 15 0 20 -4 15 -9 -11 -10 -239
-32 -313 -30 -42 2 -39 3 26 11 40 6 72 12 70 14 -8 7 -277 -16 -303 -26 -15
-6 -31 -8 -36 -4 -5 3 -14 2 -21 -2 -8 -5 -6 -10 8 -15 17 -7 17 -8 -3 -8 -13
-1 -23 4 -23 9 0 6 -18 10 -40 10 -38 0 -54 -13 -27 -23 6 -3 -4 -6 -23 -6
-26 -1 -31 2 -20 9 11 7 2 10 -32 10 -41 0 -48 -3 -48 -19 0 -20 -8 -24 -67
-36 -23 -4 -34 -2 -40 9 -7 12 -15 13 -38 7 -20 -6 -23 -10 -10 -10 13 -1 16
-4 9 -11 -11 -11 -44 -3 -44 10 0 12 -79 1 -117 -16 -17 -8 -47 -14 -67 -14
-29 0 -36 -4 -34 -16 2 -9 -7 -20 -19 -25 -14 -5 -23 -5 -23 1 0 6 5 10 10 10
6 0 10 5 10 10 0 16 -37 11 -56 -7 -13 -13 -19 -14 -22 -5 -7 22 -24 13 -19
-10 6 -21 5 -22 -7 -5 -13 17 -19 16 -122 -8 -60 -14 -125 -30 -145 -35 -20
-6 -49 -10 -65 -10 -22 0 -26 -3 -14 -10 11 -7 7 -10 -17 -10 -17 0 -52 -9
-78 -20 -26 -11 -57 -20 -69 -20 -13 0 -26 -3 -30 -7 -4 -4 -24 -6 -46 -4 -29
2 -45 -3 -62 -18 -12 -12 -30 -21 -40 -21 -10 0 -18 -6 -19 -12 0 -10 -2 -10
-6 0 -8 19 -23 14 -23 -8 0 -22 -12 -25 -41 -10 -14 8 -19 7 -19 -2 0 -7 -10
-19 -21 -27 -18 -11 -23 -11 -30 0 -6 11 -9 10 -14 -2 -4 -11 -14 -14 -32 -11
-18 3 -24 1 -19 -7 5 -7 -5 -11 -33 -11 -22 0 -43 -5 -47 -11 -3 -6 -14 -9
-24 -6 -10 2 -24 0 -31 -5 -11 -8 -10 -9 4 -4 9 3 17 1 17 -4 0 -16 -42 -23
-51 -9 -8 13 -13 5 -10 -13 0 -5 -8 -8 -18 -8 -10 0 -21 -6 -24 -14 -5 -12
-66 -28 -114 -28 -14 0 -23 -6 -24 -17 0 -10 -2 -11 -6 -3 -2 6 -9 12 -14 12
-6 0 -8 -4 -4 -9 3 -6 -3 -15 -14 -20 -25 -14 -41 -14 -21 0 12 8 11 10 -5 7
-11 -2 -20 -10 -20 -18 0 -8 -28 -25 -70 -42 -56 -22 -81 -26 -125 -23 -55 5
-55 5 -25 -10 l30 -16 -32 4 c-21 2 -33 -1 -33 -9 0 -6 -20 -15 -46 -19 -31
-4 -43 -10 -36 -17 7 -7 16 -6 30 1 29 15 37 14 21 -5 -17 -20 -63 -44 -86
-44 -10 0 -36 -9 -58 -20 -22 -11 -52 -20 -67 -20 -15 0 -28 -5 -28 -11 0 -6
-9 -9 -20 -6 -15 4 -20 0 -20 -16 0 -16 -3 -18 -9 -8 -7 10 -13 11 -31 1 -14
-8 -19 -15 -12 -19 7 -4 4 -11 -9 -19 -18 -12 -19 -10 -14 15 3 16 2 22 -1 15
-11 -24 -54 -65 -61 -59 -3 4 0 7 7 7 10 0 11 3 3 11 -8 8 -17 7 -32 -3 -23
-14 -28 -28 -9 -28 7 0 2 -7 -10 -16 -20 -14 -24 -14 -38 0 -20 21 -23 20 -17
-4 4 -16 -3 -24 -33 -37 -22 -10 -56 -28 -76 -41 -21 -13 -42 -21 -48 -17 -5
3 -10 1 -10 -5 0 -6 -15 -17 -32 -25 -18 -7 -46 -23 -61 -35 -16 -13 -36 -20
-47 -17 -12 3 -25 -2 -33 -11 -6 -10 -18 -17 -24 -18 -45 -4 -49 -5 -28 -13
17 -7 13 -12 -33 -35 -29 -15 -55 -33 -58 -41 -5 -12 -48 -28 -79 -30 -6 0
-27 -15 -46 -33 -45 -40 -106 -73 -125 -65 -8 3 -14 0 -14 -6 0 -16 -37 -51
-55 -51 -8 0 -22 -8 -32 -19 -26 -26 -112 -85 -150 -102 -18 -7 -33 -18 -33
-23 0 -4 -7 -6 -15 -3 -8 4 -17 1 -21 -5 -5 -7 -2 -8 6 -3 9 5 11 4 6 -3 -4
-7 -14 -12 -22 -12 -8 0 -14 -4 -14 -10 0 -5 -5 -10 -10 -10 -6 0 -24 -14 -42
-30 -17 -17 -37 -29 -44 -26 -8 3 -11 -1 -7 -10 3 -8 -1 -14 -10 -14 -8 0 -28
-11 -43 -24 -72 -61 -123 -94 -128 -83 -2 7 -5 6 -5 -4 -1 -8 -22 -31 -48 -49
-27 -19 -50 -37 -53 -40 -12 -13 -108 -90 -113 -90 -6 0 -28 -18 -119 -97 -33
-29 -66 -53 -72 -53 -6 0 -17 -9 -24 -20 -7 -11 -19 -20 -26 -20 -8 0 -18 -9
-21 -21 -4 -11 -9 -18 -12 -16 -5 6 -23 -8 -78 -58 -19 -16 -48 -41 -66 -55
-17 -14 -46 -38 -63 -55 -18 -16 -72 -67 -122 -112 -49 -45 -118 -110 -154
-145 -36 -35 -88 -84 -115 -111 -54 -51 -58 -55 -107 -106 -18 -19 -78 -80
-133 -137 -142 -146 -170 -177 -168 -185 1 -4 -4 -10 -13 -13 -8 -3 -12 -2 -9
4 3 6 1 10 -4 10 -6 0 -11 -7 -11 -15 0 -22 -30 -65 -45 -65 -8 0 -16 -8 -19
-17 -5 -16 -50 -72 -91 -114 -8 -9 -15 -19 -15 -22 0 -4 -21 -29 -46 -55 -62
-64 -158 -172 -162 -183 -2 -5 -9 -9 -15 -9 -7 0 -23 -10 -37 -21 -21 -17 -22
-20 -5 -15 19 6 19 5 -2 -12 -12 -11 -26 -38 -33 -61 -6 -23 -18 -45 -26 -48
-7 -3 -14 -11 -14 -19 0 -8 -4 -14 -10 -14 -5 0 -10 -7 -10 -15 0 -8 -3 -15
-7 -15 -5 0 -24 -24 -43 -54 -19 -30 -39 -52 -45 -49 -5 4 -7 3 -3 -2 4 -4 -6
-25 -22 -45 -17 -21 -30 -43 -30 -48 0 -6 -6 -15 -12 -19 -16 -10 -78 -100
-78 -112 0 -5 -3 -11 -7 -13 -21 -9 -62 -67 -68 -95 -10 -47 5 -40 40 18 17
28 37 58 46 68 9 10 27 36 40 58 13 23 49 74 80 115 31 40 58 78 60 84 11 29
126 173 143 178 13 3 58 -25 145 -90 69 -52 140 -104 156 -116 17 -12 56 -48
87 -80 l57 -57 -37 -3 c-28 -2 -38 -8 -40 -23 -2 -11 -13 -25 -25 -30 -12 -6
-22 -15 -22 -21 0 -6 -17 -28 -37 -48 -21 -21 -38 -46 -38 -57 0 -10 -6 -22
-14 -26 -17 -10 -86 -108 -86 -123 0 -5 -4 -10 -10 -10 -5 0 -10 -7 -10 -16 0
-9 -13 -28 -29 -43 -16 -15 -34 -43 -39 -62 -6 -19 -11 -27 -11 -19 -1 14 -25
-23 -50 -77 -6 -13 -15 -23 -20 -23 -5 0 -13 -9 -16 -20 -4 -11 -17 -32 -31
-47 -13 -14 -24 -34 -24 -44 0 -11 -4 -19 -9 -19 -5 0 -11 -12 -14 -27 -3 -16
-19 -42 -34 -59 -16 -17 -28 -35 -26 -40 2 -6 -6 -19 -17 -31 -14 -15 -16 -23
-7 -27 8 -3 7 -8 -5 -15 -9 -6 -19 -25 -23 -42 -4 -16 -10 -29 -13 -27 -15 7
-189 102 -217 119 -16 9 -79 43 -140 74 -60 32 -111 58 -113 60 -4 4 39 81 86
155 23 36 42 70 42 77 0 6 3 13 8 15 4 2 27 37 52 78 24 41 59 97 77 123 24
33 32 54 28 68 -7 20 -7 20 -23 -3 -9 -12 -22 -29 -30 -37 -26 -27 -61 -88
-71 -128 -6 -23 -18 -46 -26 -53 -8 -7 -15 -18 -15 -26 0 -7 -6 -17 -14 -21
-7 -4 -18 -24 -25 -44 -6 -20 -21 -45 -31 -54 -11 -10 -20 -24 -20 -32 0 -7
-6 -13 -13 -13 -8 0 -19 -11 -25 -25 -6 -14 -18 -25 -27 -25 -8 0 -15 -6 -15
-14 0 -8 -14 0 -34 20 -31 31 -65 47 -51 24 3 -6 -1 -7 -9 -4 -9 3 -14 11 -13
17 1 6 -15 20 -35 31 -21 12 -38 27 -38 34 0 7 5 10 10 7 6 -3 10 -2 10 3 0 5
11 26 25 46 13 20 22 36 20 36 -3 0 3 8 13 18 35 37 62 77 62 92 0 8 9 21 20
28 11 7 20 21 20 32 0 10 6 23 13 27 16 11 37 49 37 68 0 9 4 14 9 10 5 -3 12
4 16 15 3 11 11 20 16 20 5 0 9 7 9 15 0 8 5 15 10 15 6 0 10 6 10 14 0 8 3
16 8 18 9 4 52 65 52 75 1 4 14 24 30 43 17 19 30 39 30 45 0 6 14 25 30 43
17 18 30 38 30 43 0 6 5 7 10 4 6 -4 15 7 21 23 6 17 17 33 25 36 8 3 14 12
14 20 0 8 11 27 25 42 14 15 25 30 25 34 0 5 13 22 30 40 16 18 28 35 25 39
-2 4 5 14 16 21 10 8 19 19 19 25 0 6 14 21 30 33 17 13 30 28 30 35 0 7 15
29 33 49 73 85 102 120 106 131 2 6 14 20 26 31 12 12 35 41 52 66 17 25 44
56 60 70 16 14 39 39 51 57 13 17 31 35 42 38 11 4 18 11 14 16 -3 6 18 33 48
62 29 29 69 74 88 100 19 25 40 47 46 47 7 0 20 12 30 28 19 30 53 62 65 62 4
0 17 16 29 35 12 19 28 35 36 35 8 0 14 4 14 9 0 20 102 112 117 107 10 -4 13
-2 10 8 -7 18 153 184 171 178 7 -2 12 2 12 9 0 12 125 139 137 139 2 0 21 18
42 40 20 22 42 40 48 40 7 0 15 9 18 20 3 11 10 20 14 20 4 0 20 13 37 29 16
15 39 31 51 35 13 4 26 18 29 32 3 13 12 24 20 24 7 0 17 6 21 13 4 6 20 18
35 26 15 8 25 18 22 23 -3 4 2 8 10 8 9 0 16 3 16 8 0 4 13 13 28 20 16 7 34
23 40 37 6 14 18 25 26 25 8 0 18 9 21 20 3 11 15 20 25 20 10 0 20 4 22 9 5
13 116 101 128 101 5 0 10 7 10 16 0 11 6 14 20 9 16 -5 20 -2 20 15 0 12 4
19 10 15 5 -3 18 3 30 15 11 11 22 20 26 20 13 0 79 52 79 63 0 6 9 11 18 10
12 0 16 4 13 13 -3 9 4 16 22 20 46 10 52 13 50 25 -2 6 7 13 19 15 26 4 63
37 64 57 0 10 2 10 6 0 7 -20 33 -15 33 5 0 10 5 23 12 30 16 16 41 15 33 0
-4 -7 1 -4 9 6 9 11 16 27 16 36 0 25 9 30 36 20 19 -8 22 -6 17 8 -3 9 -3 14
2 10 4 -4 21 4 38 18 16 14 35 23 42 20 9 -3 11 2 7 16 -4 15 -2 19 7 14 6 -4
18 -2 26 4 8 7 15 9 15 6 0 -4 10 2 22 14 12 11 27 20 33 20 6 0 19 10 30 23
l19 22 7 -25 c6 -23 7 -22 8 8 1 25 5 32 20 32 33 0 51 11 51 32 0 17 3 18 15
8 14 -11 56 -5 54 8 -1 4 -1 15 0 26 1 16 3 16 17 5 16 -13 19 -12 45 34 6 11
17 16 25 13 9 -3 12 -1 9 4 -3 6 1 10 9 10 9 0 16 5 16 10 0 14 37 12 44 -2 3
-7 3 -3 0 10 -3 12 -2 21 3 20 20 -6 83 41 83 63 0 8 4 8 15 -1 13 -11 18 -10
32 9 12 17 23 22 44 19 24 -4 28 -1 24 13 -4 13 2 18 30 23 20 4 35 13 35 21
0 9 11 13 30 13 17 -1 30 -6 30 -11 0 -6 3 -7 8 -3 4 4 7 18 7 29 0 17 7 23
33 25 18 2 30 8 26 13 -3 5 -2 9 3 8 4 -1 22 4 38 11 17 8 35 14 40 15 17 1
55 31 48 38 -3 4 3 7 15 7 12 0 22 5 22 10 0 6 9 10 19 10 11 0 23 5 26 10 3
6 16 10 29 10 12 0 27 5 34 12 8 8 15 8 27 -2 14 -12 18 -11 26 1 4 8 6 22 3
33 -5 16 -2 17 27 11 27 -6 31 -5 26 9 -5 13 -2 16 13 14 10 -2 25 5 32 14 7
9 25 19 39 20 15 2 34 10 43 17 17 14 19 12 10 -13 -3 -9 -15 -16 -25 -16 -12
0 -19 -7 -19 -20 l0 -20 20 20 c11 11 27 20 35 20 8 0 15 8 15 19 0 30 24 43
67 35 36 -6 37 -5 18 10 -20 15 -19 15 8 16 15 0 27 4 27 9 0 5 15 8 33 6 19
-2 40 1 48 6 11 7 11 9 -3 9 -10 0 -18 7 -18 15 0 11 11 15 40 15 22 0 40 3
40 8 0 4 18 6 40 4 25 -3 40 0 40 7 0 6 -5 11 -11 11 -5 0 -7 5 -4 10 4 6 11
8 16 4 6 -3 18 1 27 9 9 8 37 19 62 24 27 6 44 14 42 22 -1 6 3 11 10 10 7 -1
33 -1 58 0 38 2 41 4 23 11 -36 15 -27 20 25 15 26 -2 50 -4 53 -5 4 0 10 -10
14 -22 6 -19 9 -14 17 28 l9 50 57 -2 c31 -2 51 0 45 2 -22 9 -14 26 10 23 12
-2 28 0 35 5 7 4 20 2 29 -5 12 -11 17 -11 27 2 6 9 16 14 22 12 6 -2 28 4 49
13 l40 16 -30 13 c-36 16 -31 18 13 6 20 -6 32 -6 32 0 0 5 9 9 19 9 11 0 21
6 24 13 2 6 3 4 2 -5 -4 -23 21 -23 33 -1 7 12 17 14 41 10 46 -9 86 2 96 26
13 29 65 34 112 12 33 -16 35 -16 48 1 17 23 -3 45 -34 37 -12 -3 -21 -1 -21
6 0 6 11 11 25 11 14 0 25 4 25 8 0 10 56 14 83 6 35 -11 15 -21 -35 -18 -47
3 -49 3 -18 -5 19 -5 38 -7 43 -4 5 3 7 -5 6 -18 -3 -24 1 -29 24 -29 9 0 9 2
-1 9 -11 6 -7 13 16 30 17 12 34 20 39 19 4 -2 9 2 11 7 2 6 -7 13 -20 16 -21
5 -21 6 7 11 17 3 37 8 46 12 10 4 23 1 32 -8 9 -9 21 -16 28 -16 7 0 4 6 -7
14 -10 8 -16 18 -11 22 4 4 13 2 19 -4 19 -19 49 -14 55 8 6 22 47 28 58 9 4
-6 13 -8 21 -5 8 3 14 1 14 -4 0 -6 10 -10 23 -10 21 1 21 1 3 15 -25 19 -12
33 15 17 14 -9 25 -10 40 -1 16 8 25 7 40 -7 19 -17 21 -17 48 14 24 26 26 32
12 35 -9 3 -4 5 12 6 15 0 27 -3 27 -9 0 -5 7 -10 16 -10 14 0 14 3 4 15 -11
13 -8 14 21 9 19 -4 38 -11 44 -15 5 -5 27 -8 50 -7 l40 1 -45 7 c-43 7 -42 7
23 8 59 2 67 0 67 -16 0 -11 10 -27 21 -38 l22 -19 -6 35 c-4 19 -3 40 1 46 9
14 72 26 72 14 0 -15 43 -12 66 5 12 8 24 12 27 8 4 -3 13 0 21 6 19 16 39 4
33 -19 -5 -21 18 -67 27 -52 3 5 16 8 29 5 18 -4 19 -3 7 6 -8 6 -23 8 -32 5
-15 -4 -18 1 -18 25 0 28 2 30 19 19 15 -9 23 -9 35 1 23 19 97 25 108 9 6 -9
10 -10 16 -2 4 6 14 14 22 17 9 4 5 6 -10 5 -14 -2 -26 1 -27 5 -7 19 0 25 33
25 41 0 55 9 34 22 -8 6 -10 10 -4 10 6 0 14 -3 18 -7 11 -11 66 -12 66 -1 0
5 8 5 18 -1 13 -7 22 -7 29 0 8 8 17 8 31 0 11 -6 38 -11 59 -10 30 0 34 2 18
9 -11 4 -30 6 -42 3 -13 -3 -23 -1 -23 5 0 12 88 20 99 9 4 -4 31 -9 60 -9 36
-1 55 -6 61 -17 5 -9 12 -12 16 -8 5 4 3 16 -3 25 -10 16 -6 18 42 16 61 -2
75 -8 75 -34 0 -28 33 -43 46 -22 6 9 9 23 6 31 -4 11 -6 11 -12 0 -7 -10 -11
-10 -24 0 -22 18 -20 26 7 27 12 1 33 5 46 9 16 6 22 5 18 -2 -10 -16 41 -46
61 -37 16 7 16 7 0 11 -10 3 -18 9 -18 14 0 8 13 12 65 22 26 5 41 -3 24 -14z
m1031 -9 c0 -5 -4 -10 -10 -10 -5 0 -10 5 -10 10 0 6 5 10 10 10 6 0 10 -4 10
-10z m225 -29 c3 -5 1 -13 -5 -16 -15 -9 -43 3 -35 15 8 13 32 13 40 1z
m-2269 -38 c-10 -10 -19 5 -10 18 6 11 8 11 12 0 2 -7 1 -15 -2 -18z m71 5
c-3 -8 -6 -5 -6 6 -1 11 2 17 5 13 3 -3 4 -12 1 -19z m50 16 c-3 -3 -12 -4
-19 -1 -8 3 -5 6 6 6 11 1 17 -2 13 -5z m2243 -14 c0 -17 -6 -20 -42 -19 -33
0 -38 2 -23 9 l20 9 -20 1 -20 1 20 9 c37 16 65 12 65 -10z m-2513 -16 c-3 -3
-12 -4 -19 -1 -8 3 -5 6 6 6 11 1 17 -2 13 -5z m-367 -54 c0 -5 -7 -10 -16
-10 -8 0 -12 5 -9 10 3 6 10 10 16 10 5 0 9 -4 9 -10z m3335 -30 c-3 -5 -12
-10 -20 -10 -8 0 -17 5 -20 10 -4 6 5 10 20 10 15 0 24 -4 20 -10z m-3495 -10
c0 -5 -4 -10 -10 -10 -5 0 -10 5 -10 10 0 6 5 10 10 10 6 0 10 -4 10 -10z
m4004 -10 c31 -11 33 -25 7 -39 -16 -9 -18 -8 -14 7 3 14 -2 17 -28 17 -18 0
-34 6 -36 13 -6 15 35 16 71 2z m-4107 -6 c-3 -3 -12 -4 -19 -1 -8 3 -5 6 6 6
11 1 17 -2 13 -5z m4187 -19 c-4 -8 -1 -15 6 -15 6 0 9 -4 5 -9 -8 -13 13 -24
31 -17 14 5 14 8 0 22 -21 21 -20 34 3 34 11 0 22 -9 26 -19 4 -14 19 -21 50
-25 25 -3 65 -9 90 -12 29 -4 45 -11 45 -20 0 -16 16 -19 25 -4 9 15 35 12 35
-4 0 -10 10 -14 29 -14 32 1 79 -26 62 -37 -16 -9 -13 -25 4 -25 8 0 15 9 15
20 0 22 15 27 24 8 3 -10 8 -9 15 3 7 10 19 15 35 12 21 -4 22 -7 12 -26 -25
-47 -28 -50 -37 -36 -7 11 -9 10 -9 -3 0 -10 -4 -18 -10 -18 -5 0 -10 7 -10
16 0 13 -6 11 -26 -10 -15 -14 -35 -26 -46 -26 -18 0 -18 1 -4 16 9 8 20 12
26 9 5 -3 10 -2 10 2 0 16 -63 64 -77 59 -18 -7 -16 -23 4 -30 14 -6 15 -9 4
-15 -13 -8 -30 1 -73 42 -10 9 -25 17 -33 17 -8 0 -12 6 -9 14 3 9 -6 15 -27
20 -42 8 -47 1 -21 -27 23 -24 29 -61 12 -72 -11 -7 -25 39 -16 53 8 13 -17
22 -59 22 -28 0 -33 -4 -38 -30 -4 -16 -11 -30 -16 -30 -14 0 -34 40 -25 48 4
4 9 1 11 -5 3 -7 9 -13 14 -13 6 0 9 6 8 13 -1 6 3 25 9 40 16 37 15 42 -3 27
-8 -7 -15 -19 -15 -26 0 -9 -11 -14 -31 -14 -17 0 -40 -5 -52 -11 -13 -8 -22
-8 -24 -2 -10 30 -31 45 -51 39 -12 -4 -22 -11 -22 -17 0 -14 73 -40 97 -34
12 3 24 1 27 -4 8 -12 -4 -41 -16 -41 -6 0 -5 7 2 15 16 19 5 32 -13 16 -14
-11 -25 -10 -64 6 -10 4 -29 8 -43 8 -98 5 -93 4 -79 21 7 8 20 14 29 11 8 -2
21 2 28 9 16 17 15 24 -3 24 -17 0 -19 9 -6 28 6 11 15 9 45 -7 20 -11 36 -16
36 -11 0 13 47 13 55 0 3 -5 10 -10 16 -10 5 0 9 5 9 10 0 6 -7 10 -15 10 -15
0 -21 21 -8 33 13 13 32 7 27 -8z m-569 -35 c3 -5 -1 -10 -10 -10 -9 0 -13 5
-10 10 3 6 8 10 10 10 2 0 7 -4 10 -10z m-4090 -60 c-3 -5 -12 -7 -20 -3 -21
7 -19 13 6 13 11 0 18 -4 14 -10z m5082 4 c-3 -3 -12 -4 -19 -1 -8 3 -5 6 6 6
11 1 17 -2 13 -5z m-4188 -8 c-2 -2 -22 -6 -44 -9 -28 -5 -34 -4 -20 3 19 8
73 14 64 6z m3901 -16 c11 -7 6 -10 -20 -10 -26 0 -31 3 -20 10 8 5 17 10 20
10 3 0 12 -5 20 -10z m443 -17 c-1 -6 37 -15 84 -22 48 -6 92 -16 97 -22 8 -9
1 -10 -29 -6 -31 5 -36 4 -22 -4 10 -6 36 -9 58 -7 21 2 39 0 39 -5 0 -5 9 -5
20 -2 12 4 20 2 20 -5 0 -6 6 -10 13 -9 28 5 67 -14 67 -32 0 -10 -7 -19 -15
-19 -8 0 -15 6 -15 13 0 8 -4 7 -10 -3 -8 -13 -10 -12 -11 5 -1 17 -2 17 -6 3
-2 -10 -9 -18 -14 -18 -6 0 -8 4 -5 9 3 5 -1 14 -9 21 -13 11 -15 8 -15 -14 0
-22 4 -26 28 -25 15 1 39 -2 55 -6 19 -5 27 -3 28 6 1 8 2 21 3 29 1 20 37 14
54 -10 10 -14 22 -17 46 -13 20 3 36 1 40 -6 4 -6 16 -11 27 -11 10 0 19 -4
19 -10 0 -5 11 -12 25 -16 14 -3 25 -10 25 -16 0 -5 -4 -7 -9 -3 -5 3 -12 1
-16 -5 -9 -15 -36 -12 -33 4 2 8 0 15 -4 15 -26 3 -28 0 -18 -18 8 -16 6 -23
-12 -35 l-21 -15 24 -20 c24 -19 24 -19 27 1 6 32 29 50 53 43 16 -5 19 -4 14
5 -6 10 1 12 31 7 27 -4 34 -3 24 3 -13 8 -12 10 3 10 9 0 17 -5 17 -11 0 -7
11 -9 30 -5 17 3 30 2 30 -3 0 -17 -31 -34 -61 -34 -21 0 -29 -5 -29 -19 0
-10 -4 -18 -10 -18 -5 0 -10 14 -10 32 0 37 -9 33 -12 -5 -1 -15 -6 -27 -10
-27 -4 0 -8 -7 -8 -15 0 -18 5 -18 -60 1 -54 16 -90 44 -90 70 0 8 6 11 16 7
12 -4 15 0 12 18 -3 21 -8 24 -50 24 -27 0 -48 3 -48 8 0 4 -12 7 -26 7 -14 0
-34 5 -44 10 -13 7 -21 7 -25 0 -3 -5 -1 -10 6 -10 10 0 10 -3 2 -11 -16 -16
-44 -4 -37 16 4 10 0 15 -11 15 -11 0 -15 -5 -12 -15 9 -22 -6 -25 -26 -5 -17
17 -17 18 10 25 27 8 27 8 -17 20 -44 12 -44 13 -20 23 l25 11 -31 0 c-17 1
-39 -8 -52 -19 -12 -11 -27 -20 -34 -20 -9 0 -9 -3 1 -12 11 -10 14 -10 18 0
9 23 30 13 26 -12 -3 -14 -10 -23 -17 -20 -7 3 -25 0 -41 -6 -24 -9 -26 -9
-16 4 21 25 7 40 -35 40 -38 1 -39 2 -45 41 l-6 40 -2 -37 c-1 -32 -4 -38 -23
-38 -15 0 -27 10 -35 27 -21 45 -17 53 30 53 38 0 44 -3 54 -31 10 -26 16 -30
44 -27 18 2 34 9 37 16 3 9 -3 11 -22 6 -30 -7 -36 9 -8 25 15 9 15 10 -4 11
-40 0 -84 21 -84 40 0 19 17 31 35 25 6 -1 9 -7 8 -12z m-308 -23 c16 0 25 -6
25 -15 0 -8 5 -15 11 -15 6 0 17 -7 25 -15 21 -21 -5 -21 -32 0 -10 8 -31 15
-45 15 -29 0 -42 20 -32 46 5 15 7 15 15 0 5 -9 20 -16 33 -16z m-132 -2 c-17
-8 -29 -8 -45 0 -20 9 -18 11 22 11 40 0 42 -2 23 -11z m-4356 -34 c-3 -3 -12
-4 -19 -1 -8 3 -5 6 6 6 11 1 17 -2 13 -5z m4363 -4 c13 -9 13 -10 0 -9 -8 0
-24 4 -35 9 l-20 9 20 0 c11 0 27 -4 35 -9z m-4435 -10 c-27 -12 -35 -12 -35
0 0 6 12 10 28 9 24 0 25 -1 7 -9z m4488 -7 c-7 -2 -19 -2 -25 0 -7 3 -2 5 12
5 14 0 19 -2 13 -5z m257 -8 c0 -8 -7 -15 -15 -15 -8 0 -15 7 -15 15 0 8 7 15
15 15 8 0 15 -7 15 -15z m-4817 -12 c-7 -2 -21 -2 -30 0 -10 3 -4 5 12 5 17 0
24 -2 18 -5z m4655 0 c-10 -2 -26 -2 -35 0 -10 3 -2 5 17 5 19 0 27 -2 18 -5z
m112 -33 c8 -5 11 -10 5 -10 -5 0 -17 5 -25 10 -8 5 -10 10 -5 10 6 0 17 -5
25 -10z m50 -10 c0 -5 -4 -10 -10 -10 -5 0 -10 5 -10 10 0 6 5 10 10 10 6 0
10 -4 10 -10z m50 -6 c0 -2 -7 -4 -15 -4 -8 0 -15 4 -15 10 0 5 7 7 15 4 8 -4
15 -8 15 -10z m51 -17 c-5 -5 -17 -7 -27 -4 -16 4 -15 5 3 6 17 1 21 6 17 19
-5 14 -4 15 5 2 5 -8 6 -19 2 -23z m-5761 14 c0 -11 -49 -21 -55 -10 -3 4 7
10 22 12 16 2 29 5 31 6 1 0 2 -3 2 -8z m595 -11 c-3 -5 -18 -10 -33 -9 -24 0
-25 1 -7 9 28 12 47 12 40 0z m5500 -40 c3 -5 -1 -10 -10 -10 -9 0 -13 5 -10
10 3 6 8 10 10 10 2 0 7 -4 10 -10z m-155 -4 c0 -2 -7 -7 -16 -10 -8 -3 -12
-2 -9 4 6 10 25 14 25 6z m105 -6 c4 -6 -6 -10 -22 -10 -22 0 -25 2 -13 10 19
12 27 12 35 0z m161 -58 c-12 -11 -37 24 -30 42 6 16 9 15 21 -9 8 -15 12 -29
9 -33z m-83 33 c0 -6 -7 -11 -16 -13 -12 -3 -15 1 -11 13 7 17 25 17 27 0z
m457 -16 c0 -5 12 -9 28 -9 27 -1 66 -22 56 -32 -2 -3 7 -3 21 -1 27 6 35 -11
10 -21 -8 -3 -15 -12 -15 -21 0 -8 -7 -15 -15 -15 -8 0 -15 5 -15 10 0 6 -7
10 -15 10 -8 0 -15 -3 -15 -6 0 -10 29 -34 42 -34 10 0 10 -2 -1 -9 -8 -5 -19
-7 -25 -5 -30 12 -86 10 -86 -3 0 -7 -5 -13 -10 -13 -6 0 -10 7 -8 16 2 10 -3
19 -9 21 -8 3 -13 -5 -13 -21 0 -14 -4 -26 -10 -26 -5 0 -10 7 -10 16 0 12 -7
15 -30 12 -16 -3 -28 -3 -26 0 3 2 -4 13 -14 25 -20 21 -18 37 5 37 25 0 86
42 95 65 7 17 14 21 34 18 14 -3 26 -9 26 -14z m-553 5 c-3 -3 -12 -4 -19 -1
-8 3 -5 6 6 6 11 1 17 -2 13 -5z m133 -14 c0 -5 -5 -10 -11 -10 -5 0 -7 5 -4
10 3 6 8 10 11 10 2 0 4 -4 4 -10z m315 -20 c3 -5 -3 -10 -15 -10 -12 0 -18 5
-15 10 3 6 10 10 15 10 5 0 12 -4 15 -10z m301 -37 c27 -9 52 -21 56 -27 4 -6
11 -11 15 -11 4 -1 28 -11 52 -23 24 -12 48 -19 52 -16 5 3 9 0 9 -5 0 -6 5
-11 12 -11 7 0 34 -10 60 -22 36 -17 47 -28 44 -40 -2 -10 0 -18 5 -18 5 0 9
-9 9 -20 0 -11 5 -20 10 -20 6 0 10 7 10 15 0 8 8 15 18 15 33 0 97 -22 105
-36 4 -8 19 -14 33 -14 32 0 64 -17 64 -34 0 -8 16 -16 38 -20 38 -6 38 -6 37
-51 -1 -32 2 -45 12 -45 7 0 13 8 14 18 0 11 2 12 6 4 4 -10 8 -10 19 -1 11 9
18 9 26 1 9 -9 9 -12 -1 -12 -15 0 -11 -82 4 -87 6 -2 9 14 7 40 -3 30 1 47
12 56 11 9 16 10 16 2 0 -6 12 -11 26 -11 21 0 24 -3 15 -13 -15 -19 17 -48
46 -41 47 13 123 -34 81 -49 -7 -2 -10 -8 -6 -12 4 -4 14 0 23 9 20 20 34 20
41 2 3 -8 25 -19 50 -25 25 -6 42 -16 39 -21 -3 -6 1 -7 9 -4 9 3 16 1 16 -5
0 -7 15 -18 34 -26 19 -8 37 -19 41 -25 3 -5 15 -10 26 -10 10 0 19 -4 19 -9
0 -5 10 -11 21 -14 15 -4 20 -11 16 -21 -5 -12 1 -16 24 -16 19 0 38 -9 53
-25 13 -14 32 -25 43 -25 11 0 32 -11 47 -25 15 -14 34 -25 43 -25 10 0 13 -6
9 -16 -3 -8 -2 -13 3 -10 5 3 14 -1 21 -9 6 -7 17 -12 24 -9 6 2 22 -7 34 -21
12 -14 29 -25 37 -25 8 0 15 -3 15 -7 1 -5 30 -26 65 -48 63 -39 77 -58 53
-69 -7 -3 -4 -4 8 -1 23 6 58 -9 91 -40 30 -28 44 -38 76 -54 15 -8 27 -20 27
-28 0 -7 14 -16 31 -20 17 -3 35 -15 41 -27 5 -12 28 -30 51 -40 48 -22 87
-55 87 -73 0 -7 8 -13 18 -13 24 0 119 -70 125 -92 3 -10 13 -21 24 -25 30
-13 103 -65 103 -75 0 -4 11 -13 25 -18 14 -5 33 -23 43 -39 9 -17 27 -33 40
-36 16 -4 22 -11 18 -20 -3 -10 1 -15 12 -15 10 0 40 -20 69 -45 28 -25 56
-45 63 -45 6 0 8 -5 5 -10 -3 -6 1 -13 9 -16 9 -3 16 -12 16 -18 0 -7 16 -20
35 -29 19 -9 35 -20 35 -25 0 -4 24 -26 53 -47 58 -44 110 -96 135 -138 9 -15
21 -26 27 -24 12 3 75 -60 67 -68 -3 -3 2 -5 11 -5 9 0 24 -11 33 -25 9 -13
24 -27 35 -30 12 -4 19 -16 19 -31 0 -14 4 -23 10 -19 10 6 270 -250 270 -266
0 -5 12 -21 28 -35 72 -65 112 -108 112 -121 0 -7 6 -13 14 -13 7 0 24 -14 37
-32 13 -18 35 -44 49 -59 14 -16 45 -51 70 -80 25 -29 60 -69 78 -90 17 -20
32 -40 32 -44 0 -9 110 -137 128 -148 6 -4 12 -14 12 -21 0 -7 11 -23 25 -36
14 -13 25 -29 25 -36 0 -6 6 -14 13 -17 7 -3 26 -24 42 -48 16 -24 40 -54 52
-66 13 -12 23 -26 23 -31 0 -5 9 -17 19 -27 11 -9 37 -44 58 -76 20 -32 41
-59 45 -59 4 0 8 -7 8 -16 0 -9 11 -25 25 -36 14 -11 25 -24 25 -29 0 -6 13
-24 30 -42 16 -18 30 -36 30 -41 0 -5 20 -37 45 -72 25 -34 45 -67 45 -73 0
-5 6 -14 13 -18 12 -8 38 -46 106 -157 18 -31 37 -56 42 -56 5 0 9 -4 9 -10 0
-8 58 -111 90 -160 6 -8 17 -29 25 -47 8 -17 19 -34 24 -38 6 -3 26 -38 46
-78 38 -73 74 -140 115 -212 13 -22 44 -80 70 -130 25 -49 52 -99 58 -110 6
-11 25 -49 41 -85 17 -36 39 -81 50 -100 34 -61 162 -331 177 -372 12 -35 12
-39 -4 -45 -37 -12 -108 -48 -120 -60 -7 -7 -19 -13 -26 -13 -8 0 -11 -13 -9
-37 l3 -38 -23 47 c-33 72 -47 61 -22 -17 5 -18 0 -22 -39 -32 -24 -7 -68 -23
-98 -36 -29 -13 -80 -34 -113 -46 -33 -12 -94 -36 -135 -52 -86 -34 -102 -35
-121 -12 -11 13 -11 17 -1 20 9 4 7 12 -7 32 -11 15 -20 36 -19 47 1 25 -37
106 -45 97 -4 -3 -7 3 -7 15 0 12 -4 22 -10 22 -5 0 -10 8 -10 18 0 10 -7 27
-15 38 -8 10 -15 27 -15 37 0 9 -5 17 -12 17 -6 0 -9 3 -5 6 3 3 -10 34 -28
70 -18 35 -36 77 -40 93 -3 16 -13 35 -21 42 -8 6 -14 18 -14 25 0 8 -5 14
-11 14 -6 0 -9 7 -5 15 3 9 -3 24 -14 35 -11 11 -20 27 -20 35 0 8 -4 15 -10
15 -5 0 -10 6 -10 13 0 18 -28 75 -41 82 -5 4 -9 12 -9 19 0 8 -16 40 -36 72
-20 33 -45 74 -56 92 -11 17 -24 32 -29 32 -18 0 -8 50 14 70 20 19 267 171
375 230 43 24 50 40 33 82 -5 13 -12 35 -15 51 -4 15 -11 27 -17 27 -12 0 -47
41 -67 80 -7 14 -24 38 -36 55 -13 16 -66 93 -118 171 -118 175 -139 204 -159
224 -15 14 -64 80 -153 205 -118 167 -154 223 -148 230 4 3 2 5 -4 3 -12 -3
-74 67 -74 83 0 5 -8 17 -17 27 -36 38 -62 76 -57 84 3 4 -1 8 -8 8 -17 0 -68
64 -68 87 0 13 -2 15 -9 5 -11 -18 -132 124 -124 147 3 12 2 13 -4 3 -7 -9
-19 -2 -48 30 -21 24 -68 75 -104 113 -116 123 -246 267 -249 276 -5 12 15 11
23 -1 10 -16 25 -12 19 5 -4 8 -10 13 -15 10 -4 -3 -15 7 -23 23 -19 36 -42
56 -50 43 -4 -6 5 -18 19 -27 20 -13 35 -44 21 -44 -4 0 -72 67 -187 187 -49
50 -89 89 -89 86 0 -2 -6 2 -14 9 -116 112 -197 186 -336 312 -30 27 -54 53
-52 58 1 4 -1 7 -5 6 -14 -4 -63 34 -63 49 0 8 -4 12 -8 9 -9 -6 -111 74 -187
146 -27 26 -55 48 -62 48 -7 0 -16 6 -20 13 -4 7 -44 39 -88 72 -91 68 -107
81 -144 114 -14 13 -48 38 -76 57 -62 42 -95 70 -95 80 0 4 8 0 18 -9 19 -18
32 -14 32 10 0 7 -10 13 -22 13 -12 0 -32 10 -45 22 -13 12 -26 19 -29 15 -4
-4 4 -16 17 -28 40 -34 -5 -15 -72 33 -39 27 -58 46 -54 56 4 10 0 12 -11 8
-18 -7 -84 32 -84 49 0 5 5 4 12 -3 18 -18 38 -15 38 6 0 14 -2 15 -10 2 -8
-13 -12 -12 -24 6 -16 22 -56 39 -56 23 0 -5 10 -9 22 -9 16 0 19 -3 11 -11
-8 -8 -24 -2 -59 25 -26 20 -41 36 -33 36 10 0 10 3 1 12 -10 10 -15 10 -22
-2 -8 -12 -10 -12 -16 3 -3 9 -15 17 -26 17 -10 0 -17 4 -14 9 3 5 -1 11 -9
15 -8 3 -15 1 -15 -3 0 -5 -14 4 -30 19 -17 16 -30 31 -28 34 5 9 -40 37 -53
34 -7 -2 -13 4 -14 13 0 18 -30 51 -38 42 -3 -3 -23 9 -44 26 -21 17 -45 31
-55 31 -9 0 -28 10 -41 23 -40 38 -65 49 -87 37 -17 -9 -19 -8 -13 7 6 15 4
16 -8 6 -11 -9 -22 -8 -46 2 -18 8 -33 17 -33 20 0 3 8 2 18 -3 21 -11 49 -7
86 12 18 9 24 16 16 21 -7 4 -15 3 -19 -2 -3 -6 -22 -13 -42 -17 -35 -6 -36
-5 -31 19 2 15 0 25 -7 25 -6 0 -11 -6 -11 -12 -1 -8 -6 -6 -14 5 -16 21 -20
21 -41 1 -11 -11 -23 -14 -43 -8 -20 5 -23 8 -9 11 9 3 17 9 17 14 0 6 5 7 10
4 6 -3 10 1 10 9 0 8 -4 18 -10 21 -5 3 -10 1 -10 -4 0 -6 -9 -11 -21 -11 -11
0 -17 5 -14 10 3 6 2 10 -4 10 -5 0 -13 -5 -16 -10 -4 -7 -24 3 -51 25 -24 20
-49 33 -54 30 -8 -5 -7 -11 1 -21 12 -15 2 -19 -19 -6 -7 5 -10 16 -7 24 4 10
-1 17 -14 21 -15 3 -19 10 -15 22 5 12 2 16 -12 13 -14 -2 -20 4 -22 25 -4 35
-21 36 -19 1 3 -39 -22 -42 -36 -5 -6 17 -15 31 -20 31 -4 0 -5 -5 -2 -10 10
-16 -14 -40 -32 -33 -13 5 -13 7 1 15 24 14 21 41 -4 33 -13 -4 -22 -1 -26 9
-4 10 -18 16 -35 16 -17 0 -41 8 -55 17 l-26 16 29 13 28 12 -32 7 c-19 4 -33
14 -33 22 0 8 -4 11 -10 8 -6 -4 -5 -13 2 -25 14 -22 -4 -50 -31 -50 -13 1
-13 3 4 17 16 12 16 14 3 10 -10 -4 -48 9 -90 30 l-73 36 33 9 c18 5 30 13 26
19 -3 6 -10 6 -17 1 -7 -5 -22 -12 -34 -14 -17 -5 -20 -2 -15 11 5 13 3 14
-10 3 -15 -12 -74 -7 -83 8 -11 18 24 32 54 22 24 -9 111 -6 111 3 0 2 -3 10
-6 19 -7 17 -34 22 -34 6 0 -15 -34 -12 -56 6 -14 11 -16 17 -6 21 7 3 17 16
22 29 11 29 5 28 66 7z m-396 -49 c0 -11 -5 -14 -16 -10 -9 3 -23 6 -32 7 -14
0 -13 2 3 9 31 13 45 11 45 -6z m245 -34 c4 -6 -5 -10 -20 -10 -15 0 -24 4
-20 10 3 6 12 10 20 10 8 0 17 -4 20 -10z m-75 -20 c0 -5 -4 -10 -10 -10 -5 0
-10 5 -10 10 0 6 5 10 10 10 6 0 10 -4 10 -10z m547 -52 c-3 -8 -6 -5 -6 6 -1
11 2 17 5 13 3 -3 4 -12 1 -19z m-58 -154 c2 -2 2 -7 -2 -10 -3 -3 -16 2 -29
11 l-23 17 25 -7 c14 -4 27 -9 29 -11z m181 -84 c0 -13 -11 -13 -30 0 -12 8
-11 10 8 10 12 0 22 -4 22 -10z m390 -10 c-19 -13 -30 -13 -30 0 0 6 10 10 23
10 18 0 19 -2 7 -10z m-113 -136 c-3 -3 -12 -4 -19 -1 -8 3 -5 6 6 6 11 1 17
-2 13 -5z m363 -200 c0 -2 -7 -4 -15 -4 -8 0 -15 4 -15 10 0 5 7 7 15 4 8 -4
15 -8 15 -10z m-12729 -3237 c-10 -9 -11 -8 -5 6 3 10 9 15 12 12 3 -3 0 -11
-7 -18z m-416 -277 c3 -5 -1 -10 -10 -10 -9 0 -13 5 -10 10 3 6 8 10 10 10 2
0 7 -4 10 -10z m35 -20 c0 -5 -2 -10 -4 -10 -3 0 -8 5 -11 10 -3 6 -1 10 4 10
6 0 11 -4 11 -10z m56 -115 c20 -19 4 -20 -22 0 -12 9 -14 14 -6 15 7 0 20 -7
28 -15z m334 -404 c0 -6 -4 -13 -10 -16 -5 -3 -10 1 -10 9 0 9 5 16 10 16 6 0
10 -4 10 -9z m-10 -61 c0 -5 -5 -10 -11 -10 -5 0 -7 5 -4 10 3 6 8 10 11 10 2
0 4 -4 4 -10z m-11 -36 c3 -4 0 -9 -6 -11 -7 -3 -13 -12 -14 -21 0 -11 -4 -9
-11 8 -11 25 -11 25 -15 3 -4 -21 -23 -33 -23 -15 0 4 -3 17 -6 30 -6 21 -4
22 31 18 20 -3 40 -8 44 -12z m-89 -130 c0 -8 -4 -14 -10 -14 -5 0 -10 9 -10
21 0 11 5 17 10 14 6 -3 10 -13 10 -21z m497 -21 c-3 -10 -5 -4 -5 12 0 17 2
24 5 18 2 -7 2 -21 0 -30z m-517 -14 c0 -10 -4 -19 -10 -19 -5 0 -10 12 -10
26 0 14 4 23 10 19 6 -3 10 -15 10 -26z m-14 -56 c-10 -10 -19 5 -10 18 6 11
8 11 12 0 2 -7 1 -15 -2 -18z m-26 -25 c0 -4 -7 -5 -15 -2 -8 4 -15 16 -15 27
0 20 0 20 15 1 8 -10 15 -22 15 -26z m-26 -38 c-4 -14 -8 -33 -8 -42 -1 -10
-5 -21 -9 -24 -4 -4 -2 -13 4 -21 9 -10 8 -13 -5 -13 -9 0 -16 -7 -16 -15 0
-20 -16 -19 -24 1 -3 8 1 22 10 31 8 9 13 22 10 30 -3 7 4 23 17 36 19 19 20
22 4 25 -24 5 -21 21 4 19 16 -1 19 -6 13 -27z m554 -13 c10 -3 6 -5 -10 -6
-22 -1 -25 2 -20 22 5 17 7 18 10 5 2 -9 11 -19 20 -21z m-38 -72 c0 -8 -4
-15 -10 -15 -5 0 -10 7 -10 15 0 8 5 15 10 15 6 0 10 -7 10 -15z m27 -27 c-3
-7 -5 -2 -5 12 0 14 2 19 5 13 2 -7 2 -19 0 -25z m-597 -52 c0 -14 -4 -28 -10
-31 -5 -3 -10 0 -10 9 0 8 -3 21 -6 30 -4 11 -1 16 10 16 10 0 16 -9 16 -24z
m-45 -58 c-8 -36 -20 -55 -27 -41 -8 13 11 73 23 73 7 0 8 -12 4 -32z m17301
-29 c8 -14 -18 -31 -30 -19 -9 9 0 30 14 30 5 0 12 -5 16 -11z m-53 -24 c2
-12 -82 -57 -97 -52 -6 2 11 12 37 22 48 18 57 29 35 39 -7 3 -5 5 5 3 10 -1
19 -6 20 -12z m-17263 -24 c0 -5 -6 -14 -14 -20 -10 -8 -16 -8 -25 2 -6 8 -8
17 -4 20 9 10 43 8 43 -2z m472 -43 c-7 -7 -12 -8 -12 -2 0 14 12 26 19 19 2
-3 -1 -11 -7 -17z m128 12 c0 -5 -4 -10 -10 -10 -5 0 -10 5 -10 10 0 6 5 10
10 10 6 0 10 -4 10 -10z m-640 -46 c0 -19 -4 -25 -15 -20 -8 3 -15 1 -15 -4 0
-6 7 -10 15 -10 8 0 15 -9 15 -20 0 -27 -11 -25 -33 5 -17 23 -17 26 -1 50 21
32 34 32 34 -1z m-10 -98 c0 -3 -4 -8 -10 -11 -5 -3 -10 -1 -10 4 0 6 5 11 10
11 6 0 10 -2 10 -4z m-27 -67 c-6 -6 -21 -8 -33 -4 l-22 7 23 12 c27 14 50 3
32 -15z m-43 -66 c0 -32 -17 -63 -35 -63 -11 0 -15 -12 -15 -48 0 -26 -6 -56
-14 -67 -7 -11 -17 -35 -21 -52 -5 -24 -12 -33 -26 -33 -16 0 -18 5 -13 28 10
41 23 62 39 62 8 0 15 5 15 10 0 6 -9 10 -20 10 -11 0 -20 5 -20 10 0 6 10 10
23 10 18 0 19 2 7 10 -13 9 -7 14 13 11 11 -2 8 17 -4 21 -14 5 0 38 17 38 8
0 14 5 14 10 0 6 7 10 16 10 15 0 14 10 -3 58 -4 8 0 10 11 6 9 -3 16 -17 16
-31z m-50 -13 c0 -5 -4 -10 -10 -10 -5 0 -10 5 -10 10 0 6 5 10 10 10 6 0 10
-4 10 -10z m607 -22 c-3 -8 -6 -5 -6 6 -1 11 2 17 5 13 3 -3 4 -12 1 -19z
m16373 -38 c0 -5 -7 -10 -16 -10 -8 0 -12 5 -9 10 3 6 10 10 16 10 5 0 9 -4 9
-10z m-16477 -50 c-3 -12 -8 -19 -11 -16 -5 6 5 36 12 36 2 0 2 -9 -1 -20z
m16477 -30 c0 -5 -2 -10 -4 -10 -3 0 -8 5 -11 10 -3 6 -1 10 4 10 6 0 11 -4
11 -10z m35 -29 c0 -6 5 -15 12 -19 6 -4 15 -20 19 -36 l7 -28 -26 17 c-15 9
-23 22 -21 30 9 23 -5 38 -22 24 -17 -14 -19 2 -2 19 14 14 33 10 33 -7z
m-16465 -5 c0 -3 -4 -8 -10 -11 -5 -3 -10 -1 -10 4 0 6 5 11 10 11 6 0 10 -2
10 -4z m-616 -104 c2 -4 1 -14 -4 -21 -10 -17 -31 -5 -23 14 6 16 19 20 27 7z
m17106 -22 c0 -10 5 -22 10 -25 6 -3 10 4 10 16 0 12 2 20 5 17 10 -10 13
-118 3 -118 -5 0 -8 6 -6 13 1 6 -8 32 -20 56 -23 47 -29 76 -12 66 6 -3 10
-15 10 -25z m65 -40 c3 -5 1 -10 -4 -10 -6 0 -11 5 -11 10 0 6 2 10 4 10 3 0
8 -4 11 -10z m15 -76 c0 -8 -4 -12 -10 -9 -5 3 -10 1 -10 -5 0 -6 -5 -8 -12
-4 -9 6 -9 9 0 12 7 2 12 10 12 18 0 9 5 12 10 9 6 -3 10 -13 10 -21z m-17270
-64 c0 -5 -2 -10 -4 -10 -3 0 -8 5 -11 10 -3 6 -1 10 4 10 6 0 11 -4 11 -10z
m492 -42 c-8 -8 -9 -4 -5 13 4 13 8 18 11 10 2 -7 -1 -18 -6 -23z m16791 -8
c3 -13 0 -20 -9 -20 -8 0 -14 9 -14 20 0 11 4 20 9 20 5 0 11 -9 14 -20z
m-17283 0 c0 -5 -5 -10 -11 -10 -5 0 -7 5 -4 10 3 6 8 10 11 10 2 0 4 -4 4
-10z m477 -32 c-3 -8 -6 -5 -6 6 -1 11 2 17 5 13 3 -3 4 -12 1 -19z m-486 -4
c12 -14 11 -16 -5 -13 -11 2 -21 10 -24 17 -5 17 13 15 29 -4z m17324 -14 c-3
-5 -12 -10 -18 -10 -7 0 -6 4 3 10 19 12 23 12 15 0z m-17350 -20 c-3 -5 -11
-10 -16 -10 -6 0 -7 5 -4 10 3 6 11 10 16 10 6 0 7 -4 4 -10z m17355 -25 c-7
-9 -15 -13 -17 -11 -7 7 7 26 19 26 6 0 6 -6 -2 -15z m-30 -15 c0 -5 -2 -10
-4 -10 -3 0 -8 5 -11 10 -3 6 -1 10 4 10 6 0 11 -4 11 -10z m-16846 -25 c-4
-8 -8 -15 -10 -15 -2 0 -4 7 -4 15 0 8 4 15 10 15 5 0 7 -7 4 -15z m16890 -12
c-9 -37 -12 -39 -21 -18 -4 11 -2 20 5 23 7 2 10 8 6 13 -3 5 0 9 6 9 6 0 8
-10 4 -27z m-17387 -25 c-3 -8 -6 -5 -6 6 -1 11 2 17 5 13 3 -3 4 -12 1 -19z
m17410 2 c-3 -11 -1 -20 4 -20 5 0 9 -7 9 -15 0 -16 -15 -21 -23 -7 -4 8 3
-17 10 -35 3 -7 0 -13 -5 -13 -6 0 -13 9 -17 20 -8 25 4 90 17 90 6 0 8 -9 5
-20z m-17417 -30 c0 -5 -7 -10 -16 -10 -8 0 -12 5 -9 10 3 6 10 10 16 10 5 0
9 -4 9 -10z m17446 -120 c1 -19 -4 -30 -12 -30 -8 0 -12 11 -11 30 3 39 22 39
23 0z m-17486 -90 c0 -11 -4 -20 -9 -20 -13 0 -32 26 -24 33 13 14 33 6 33
-13z m17530 -25 c0 -8 0 -18 1 -22 0 -4 -4 -9 -9 -11 -5 -1 -9 9 -9 23 0 14 3
25 8 25 5 0 9 -7 9 -15z m-20 -85 c0 -13 -1 -13 -10 0 -5 8 -10 22 -10 30 0
13 1 13 10 0 5 -8 10 -22 10 -30z m-17570 6 c0 -3 -4 -8 -10 -11 -5 -3 -10 -1
-10 4 0 6 5 11 10 11 6 0 10 -2 10 -4z m440 -61 c-14 -64 -29 -90 -30 -52 0
15 5 27 10 27 6 0 10 15 10 33 0 31 8 52 17 43 2 -2 -1 -25 -7 -51z m-430 25
c0 -5 -2 -10 -4 -10 -3 0 -8 5 -11 10 -3 6 -1 10 4 10 6 0 11 -4 11 -10z
m17599 3 c0 -5 -4 -17 -9 -28 -8 -18 -9 -17 -9 8 -1 15 4 27 9 27 6 0 10 -3 9
-7z m-17589 -44 c0 -5 -4 -9 -10 -9 -5 0 -10 7 -10 16 0 8 5 12 10 9 6 -3 10
-10 10 -16z m-34 -29 c0 -11 -4 -20 -8 -20 -4 0 -8 9 -8 20 0 11 4 20 8 20 4
0 8 -9 8 -20z m427 -55 c4 -8 2 -17 -3 -20 -6 -4 -10 3 -10 14 0 25 6 27 13 6z
m-463 -49 c0 -8 -4 -18 -10 -21 -5 -3 -10 3 -10 14 0 12 5 21 10 21 6 0 10 -6
10 -14z m17677 -8 c-3 -8 -6 -5 -6 6 -1 11 2 17 5 13 3 -3 4 -12 1 -19z
m-17682 -38 c3 -5 1 -10 -5 -10 -7 0 -10 -6 -7 -12 3 -7 8 -22 12 -33 7 -20 6
-20 -9 -1 -9 11 -16 30 -16 43 0 24 14 31 25 13z m25 -26 c0 -8 -5 -12 -10 -9
-6 4 -8 11 -5 16 9 14 15 11 15 -7z m17730 -99 c0 -8 -4 -15 -10 -15 -5 0 -10
7 -10 15 0 8 5 15 10 15 6 0 10 -7 10 -15z m-17780 -35 c0 -5 -4 -10 -10 -10
-5 0 -10 5 -10 10 0 6 5 10 10 10 6 0 10 -4 10 -10z m-19 -59 c-16 -16 -21
-17 -21 -6 0 8 5 15 10 15 6 0 10 8 10 17 0 12 3 14 11 6 8 -8 5 -17 -10 -32z
m17824 -11 c8 -13 -5 -13 -25 0 -13 8 -13 10 2 10 9 0 20 -4 23 -10z m-17790
-60 c3 -5 2 -10 -4 -10 -5 0 -13 5 -16 10 -3 6 -2 10 4 10 5 0 13 -4 16 -10z
m-35 -36 c0 -14 -3 -14 -15 -4 -8 7 -15 14 -15 16 0 2 7 4 15 4 8 0 15 -7 15
-16z m-693 -136 c-3 -8 -6 -5 -6 6 -1 11 2 17 5 13 3 -3 4 -12 1 -19z m656
-113 c-6 -30 -33 -56 -33 -31 0 18 21 56 31 56 3 0 4 -11 2 -25z m-696 -177
c-3 -7 -5 -2 -5 12 0 14 2 19 5 13 2 -7 2 -19 0 -25z m673 -74 c0 -2 -9 -4
-20 -4 -11 0 -20 4 -20 9 0 5 9 7 20 4 11 -3 20 -7 20 -9z m-19 -47 c-13 -13
-26 -3 -16 12 3 6 11 8 17 5 6 -4 6 -10 -1 -17z m-641 -99 c0 -6 -6 -5 -15 2
-13 11 -15 8 -15 -14 0 -14 -4 -26 -10 -26 -5 0 -7 7 -5 15 3 8 7 22 10 30 5
16 35 10 35 -7z m10 -48 c0 -5 -2 -10 -4 -10 -3 0 -8 5 -11 10 -3 6 -1 10 4
10 6 0 11 -4 11 -10z m-53 -32 c-3 -8 -6 -5 -6 6 -1 11 2 17 5 13 3 -3 4 -12
1 -19z m210 -60 c-3 -8 -6 -5 -6 6 -1 11 2 17 5 13 3 -3 4 -12 1 -19z m-197
-58 c0 -4 -7 -10 -15 -14 -10 -4 -15 1 -15 14 0 13 5 18 15 14 8 -4 15 -10 15
-14z m-20 -99 c-7 -11 -9 -3 -9 29 1 42 1 43 9 16 6 -17 5 -36 0 -45z m0 -151
c4 0 10 -6 13 -14 4 -10 0 -14 -14 -13 -15 1 -19 8 -18 37 1 23 3 27 6 13 2
-13 8 -23 13 -23z m6 -60 c9 0 12 -5 9 -10 -4 -6 -11 -8 -16 -5 -5 4 -9 -3 -9
-14 0 -14 6 -21 20 -21 11 0 20 -4 20 -10 0 -5 -9 -10 -20 -10 -16 0 -20 -7
-20 -31 0 -16 -4 -28 -9 -25 -10 7 -14 124 -4 139 5 8 8 7 11 -1 2 -7 10 -12
18 -12z m-18 -195 c0 -25 -4 -45 -9 -45 -5 0 -9 23 -9 51 0 28 4 48 9 45 5 -4
9 -26 9 -51z m3847 -845 c3 -5 2 -10 -4 -10 -5 0 -13 5 -16 10 -3 6 -2 10 4
10 5 0 13 -4 16 -10z m95 -96 c0 -12 -4 -12 -20 -2 -11 7 -20 16 -20 19 0 4 9
5 20 2 11 -3 20 -12 20 -19z m-1486 -44 c10 -10 -70 -1 -99 11 -11 4 5 5 35 2
30 -3 59 -9 64 -13z m2190 -1029 c-6 -6 -24 19 -24 34 1 6 7 1 15 -9 8 -11 12
-22 9 -25z m176 -332 c0 -5 -4 -9 -10 -9 -5 0 -10 7 -10 16 0 8 5 12 10 9 6
-3 10 -10 10 -16z m-3274 -55 c-4 -9 -9 -15 -11 -12 -3 3 -3 13 1 22 4 9 9 15
11 12 3 -3 3 -13 -1 -22z m3394 -2334 c0 -5 -2 -10 -4 -10 -3 0 -8 5 -11 10
-3 6 -1 10 4 10 6 0 11 -4 11 -10z m-3110 -760 c0 -5 -4 -10 -10 -10 -5 0 -10
5 -10 10 0 6 5 10 10 10 6 0 10 -4 10 -10z m50 -149 c12 -45 13 -54 0 -46 -5
3 -10 16 -10 28 0 12 -7 31 -15 41 -19 26 -19 42 0 26 8 -7 19 -29 25 -49z
m45 -111 c14 -22 25 -46 25 -55 0 -8 5 -15 11 -15 6 0 9 -7 6 -15 -4 -8 -3
-16 1 -19 5 -3 14 -28 22 -56 8 -28 23 -61 35 -74 11 -12 19 -30 17 -39 -2
-10 2 -25 9 -33 6 -8 9 -17 6 -21 -4 -3 2 -22 12 -42 11 -20 27 -62 37 -93 10
-34 22 -58 30 -58 13 0 19 -25 15 -59 -2 -7 2 -10 8 -6 7 3 11 -2 11 -14 0
-21 20 -72 31 -81 11 -8 28 -80 23 -94 -3 -8 2 -20 10 -29 9 -9 16 -23 16 -31
0 -9 5 -16 11 -16 6 0 9 -10 8 -22 -3 -27 17 -74 45 -107 14 -16 17 -25 9 -28
-9 -3 -7 -14 7 -38 10 -18 22 -51 26 -72 4 -21 11 -44 16 -50 6 -7 8 -20 4
-28 -3 -9 0 -15 9 -15 17 0 28 -31 19 -55 -5 -13 -4 -16 4 -11 8 5 12 -4 12
-28 0 -26 4 -36 16 -36 11 0 15 -8 12 -29 -1 -16 4 -36 11 -45 10 -12 11 -20
4 -27 -11 -11 -33 29 -71 131 -60 160 -86 228 -98 256 -8 17 -34 87 -59 155
-25 68 -51 135 -57 149 -11 24 -47 122 -102 280 -15 41 -31 84 -36 95 -25 60
-80 204 -80 213 0 5 -16 49 -35 96 -34 85 -40 106 -30 106 3 0 16 -18 30 -40z
m13413 -182 c-2 -6 -10 -14 -16 -16 -7 -2 -10 2 -6 12 7 18 28 22 22 4z m-152
-273 c3 -8 -1 -22 -10 -30 -9 -9 -16 -24 -17 -33 0 -14 -2 -13 -9 3 -13 29
-12 35 5 35 8 0 15 5 15 10 0 6 -4 10 -10 10 -5 0 -10 5 -10 10 0 16 30 12 36
-5z m-46 -99 c0 -7 -6 -19 -14 -25 -11 -9 -15 -8 -20 5 -3 9 -4 20 0 25 8 14
34 11 34 -5z m-40 -54 c0 -4 -12 -9 -27 -10 -26 -1 -27 -1 -9 13 18 14 36 12
36 -3z m-38 -84 c-8 -8 -9 -4 -5 13 4 13 8 18 11 10 2 -7 -1 -18 -6 -23z m-22
2 c0 -5 -5 -10 -11 -10 -5 0 -7 5 -4 10 3 6 8 10 11 10 2 0 4 -4 4 -10z m-8
-38 c-7 -2 -12 -13 -12 -25 0 -15 -3 -18 -11 -10 -13 13 10 55 25 46 6 -4 5
-8 -2 -11z m-42 -62 c0 -5 -2 -10 -4 -10 -3 0 -8 5 -11 10 -3 6 -1 10 4 10 6
0 11 -4 11 -10z m-20 -84 c0 -18 -17 -29 -30 -21 -8 5 -7 11 1 21 15 18 29 18
29 0z m-40 -75 c0 -5 -7 -14 -15 -21 -8 -7 -15 -19 -15 -26 0 -8 -4 -14 -10
-14 -13 0 -13 6 5 40 15 28 35 40 35 21z m-62 -108 c-17 -20 -41 -17 -30 5 5
9 7 23 5 30 -3 9 2 7 16 -4 15 -13 18 -21 9 -31z m-47 -71 c-6 -2 -11 -12 -11
-22 0 -10 -7 -20 -15 -24 -8 -3 -15 -12 -15 -21 0 -22 -17 -18 -23 5 -3 11 -1
18 4 14 5 -3 9 0 9 6 0 6 4 8 10 5 6 -4 7 6 4 24 -5 26 -3 32 17 40 19 7 25 5
28 -7 2 -9 -2 -18 -8 -20z m-103 -182 c-7 -10 -14 -18 -15 -16 -6 6 9 36 18
36 5 0 4 -9 -3 -20z m2022 -4 c0 -3 -4 -8 -10 -11 -5 -3 -10 -1 -10 4 0 6 5
11 10 11 6 0 10 -2 10 -4z m-2078 -97 c-20 -52 -31 -50 -18 5 6 27 15 42 22
39 9 -3 8 -14 -4 -44z m2048 47 c0 -3 -4 -8 -10 -11 -5 -3 -10 -1 -10 4 0 6 5
11 10 11 6 0 10 -2 10 -4z m-13510 -86 c0 -5 -4 -10 -10 -10 -5 0 -10 5 -10
10 0 6 5 10 10 10 6 0 10 -4 10 -10z m13463 -6 c-13 -34 -63 -118 -63 -107 0
7 8 27 18 45 10 18 24 43 31 56 14 25 23 30 14 6z m-14178 -14 c-3 -5 -10 -10
-16 -10 -5 0 -9 5 -9 10 0 6 7 10 16 10 8 0 12 -4 9 -10z m16 -56 c10 -28 5
-44 -10 -28 -5 5 -12 19 -16 32 -9 32 13 28 26 -4z m12079 -54 c0 -5 -5 -10
-11 -10 -5 0 -7 5 -4 10 3 6 8 10 11 10 2 0 4 -4 4 -10z m-12060 -20 c0 -5 -4
-10 -10 -10 -5 0 -10 5 -10 10 0 6 5 10 10 10 6 0 10 -4 10 -10z m40 -90 c-1
-12 -4 -11 -15 4 -8 10 -12 23 -8 29 7 11 23 -12 23 -33z m20 -61 c0 -6 -4 -7
-10 -4 -5 3 -10 11 -10 16 0 6 5 7 10 4 6 -3 10 -11 10 -16z m12624 -974 c-4
-8 -8 -15 -10 -15 -2 0 -4 7 -4 15 0 8 4 15 10 15 5 0 7 -7 4 -15z m-24 -49
c0 -3 -4 -8 -10 -11 -5 -3 -10 -1 -10 4 0 6 5 11 10 11 6 0 10 -2 10 -4z
m-10015 -1796 c3 -5 1 -10 -4 -10 -6 0 -11 5 -11 10 0 6 2 10 4 10 3 0 8 -4
11 -10z m-668 -42 c-3 -8 -6 -5 -6 6 -1 11 2 17 5 13 3 -3 4 -12 1 -19z m83
-48 c0 -5 -2 -10 -4 -10 -3 0 -8 5 -11 10 -3 6 -1 10 4 10 6 0 11 -4 11 -10z
m940 -132 c0 -5 -9 -8 -20 -8 -13 0 -20 7 -20 20 0 18 2 19 20 8 11 -7 20 -16
20 -20z m-3250 -22 c0 -3 -4 -8 -10 -11 -5 -3 -10 -1 -10 4 0 6 5 11 10 11 6
0 10 -2 10 -4z m3517 -152 c-3 -3 -12 -4 -19 -1 -8 3 -5 6 6 6 11 1 17 -2 13
-5z m-1442 -474 c3 -5 1 -10 -4 -10 -6 0 -11 5 -11 10 0 6 2 10 4 10 3 0 8 -4
11 -10z m75 0 c0 -5 -4 -10 -10 -10 -5 0 -10 5 -10 10 0 6 5 10 10 10 6 0 10
-4 10 -10z"/>
<path d="M29870 29705 c-22 -27 12 -49 38 -23 8 8 9 15 1 25 -15 17 -24 16
-39 -2z"/>
<path d="M29090 29700 c0 -5 7 -10 16 -10 11 0 14 -6 9 -22 -5 -19 -4 -20 5
-6 5 9 7 23 4 32 -7 17 -34 22 -34 6z"/>
<path d="M29335 29700 c3 -5 10 -10 16 -10 5 0 9 5 9 10 0 6 -7 10 -16 10 -8
0 -12 -4 -9 -10z"/>
<path d="M29954 29696 c-8 -22 3 -33 18 -18 9 9 9 15 0 24 -9 9 -13 7 -18 -6z"/>
<path d="M29636 29680 c8 -31 4 -27 39 -34 17 -3 23 -3 15 0 -8 4 -25 18 -38
33 l-23 26 7 -25z"/>
<path d="M29700 29691 c-17 -5 -7 -7 33 -7 34 0 50 3 40 7 -22 9 -41 9 -73 0z"/>
<path d="M29448 29673 c7 -3 16 -2 19 1 4 3 -2 6 -13 5 -11 0 -14 -3 -6 -6z"/>
<path d="M29810 29670 c0 -5 7 -10 15 -10 8 0 15 5 15 10 0 6 -7 10 -15 10 -8
0 -15 -4 -15 -10z"/>
<path d="M30052 29660 c-13 -11 -22 -27 -20 -35 4 -23 22 -22 27 1 2 10 8 22
13 25 6 4 9 11 7 17 -2 6 -14 2 -27 -8z"/>
<path d="M30241 29659 c-1 -11 11 -18 36 -22 43 -7 46 -6 37 17 -7 17 -34 22
-34 6 0 -14 -27 -12 -33 3 -4 7 -6 6 -6 -4z"/>
<path d="M29520 29650 c0 -5 5 -10 11 -10 5 0 7 5 4 10 -3 6 -8 10 -11 10 -2
0 -4 -4 -4 -10z"/>
<path d="M29733 29649 c11 -7 23 -7 35 0 14 9 11 10 -18 10 -29 0 -32 -1 -17
-10z"/>
<path d="M29914 29652 c-9 -5 -8 -10 1 -19 10 -9 14 -8 18 8 5 20 0 24 -19 11z"/>
<path d="M28635 29639 c-4 -6 -5 -12 -2 -15 2 -3 7 2 10 11 7 17 1 20 -8 4z"/>
<path d="M28680 29640 c0 -5 4 -10 9 -10 6 0 13 5 16 10 3 6 -1 10 -9 10 -9 0
-16 -4 -16 -10z"/>
<path d="M29427 29629 c4 -16 8 -17 14 -7 13 19 11 28 -5 28 -9 0 -12 -7 -9
-21z"/>
<path d="M29813 29643 c9 -2 25 -2 35 0 9 3 1 5 -18 5 -19 0 -27 -2 -17 -5z"/>
<path d="M30159 29630 c24 -21 71 -27 71 -10 0 12 -45 24 -59 15 -6 -3 -11 -1
-11 4 0 6 -6 11 -12 11 -7 -1 -2 -10 11 -20z"/>
<path d="M30860 29631 c0 -11 5 -23 10 -26 6 -4 10 5 10 19 0 14 -4 26 -10 26
-5 0 -10 -9 -10 -19z"/>
<path d="M29966 29631 c-4 -7 -5 -15 -2 -18 9 -9 19 4 14 18 -4 11 -6 11 -12
0z"/>
<path d="M29715 29620 c-3 -5 1 -10 10 -10 9 0 13 5 10 10 -3 6 -8 10 -10 10
-2 0 -7 -4 -10 -10z"/>
<path d="M30520 29615 c0 -8 5 -15 10 -15 6 0 10 7 10 15 0 8 -4 15 -10 15 -5
0 -10 -7 -10 -15z"/>
<path d="M30800 29611 c0 -12 5 -21 10 -21 6 0 10 6 10 14 0 8 -4 18 -10 21
-5 3 -10 -3 -10 -14z"/>
<path d="M30990 29614 c0 -8 5 -12 10 -9 6 4 8 11 5 16 -9 14 -15 11 -15 -7z"/>
<path d="M29660 29610 c0 -5 5 -10 10 -10 6 0 10 5 10 10 0 6 -4 10 -10 10 -5
0 -10 -4 -10 -10z"/>
<path d="M29868 29613 c6 -2 18 -2 25 0 6 3 1 5 -13 5 -14 0 -19 -2 -12 -5z"/>
<path d="M28330 29600 c0 -5 5 -10 10 -10 6 0 10 5 10 10 0 6 -4 10 -10 10 -5
0 -10 -4 -10 -10z"/>
<path d="M28590 29599 c0 -5 5 -7 10 -4 6 3 10 8 10 11 0 2 -4 4 -10 4 -5 0
-10 -5 -10 -11z"/>
<path d="M30240 29590 c0 -13 11 -13 30 0 12 8 11 10 -7 10 -13 0 -23 -4 -23
-10z"/>
<path d="M30580 29580 c0 -5 5 -10 11 -10 5 0 7 5 4 10 -3 6 -8 10 -11 10 -2
0 -4 -4 -4 -10z"/>
<path d="M30826 29581 c-3 -5 7 -12 24 -16 16 -4 30 -11 30 -16 0 -5 18 -9 41
-9 24 0 38 4 34 10 -3 6 -15 10 -26 10 -10 0 -19 5 -19 11 0 7 -10 9 -26 5
-14 -4 -32 -2 -39 4 -8 7 -15 7 -19 1z"/>
<path d="M28200 29558 c21 -23 36 -19 27 7 -4 8 -16 15 -27 15 l-21 0 21 -22z"/>
<path d="M27955 29560 c3 -5 8 -10 11 -10 2 0 4 5 4 10 0 6 -5 10 -11 10 -5 0
-7 -4 -4 -10z"/>
<path d="M28910 29560 c0 -8 -8 -10 -21 -7 -15 4 -19 3 -12 -4 13 -13 69 -8
66 6 -3 15 -33 19 -33 5z"/>
<path d="M30966 29555 c4 -8 12 -15 19 -15 7 0 15 7 19 15 4 11 -1 15 -19 15
-18 0 -23 -4 -19 -15z"/>
<path d="M31403 29530 c0 -22 3 -40 8 -40 5 0 9 11 9 23 0 34 11 40 34 18 12
-10 31 -22 44 -26 23 -7 23 -6 5 14 -9 12 -25 21 -34 21 -9 0 -19 7 -23 15 -3
8 -13 15 -23 15 -14 0 -18 -9 -20 -40z"/>
<path d="M30768 29553 c6 -2 18 -2 25 0 6 3 1 5 -13 5 -14 0 -19 -2 -12 -5z"/>
<path d="M27911 29534 c0 -11 3 -14 6 -6 3 7 2 16 -1 19 -3 4 -6 -2 -5 -13z"/>
<path d="M28828 29543 c6 -2 18 -2 25 0 6 3 1 5 -13 5 -14 0 -19 -2 -12 -5z"/>
<path d="M31298 29533 c12 -2 30 -2 40 0 9 3 -1 5 -23 4 -22 0 -30 -2 -17 -4z"/>
<path d="M27620 29510 c0 -5 5 -10 10 -10 6 0 10 5 10 10 0 6 -4 10 -10 10 -5
0 -10 -4 -10 -10z"/>
<path d="M27673 29502 c-8 -5 -9 -13 -3 -22 11 -17 23 -8 18 14 -2 9 -8 12
-15 8z"/>
<path d="M27752 29501 c-9 -5 -6 -13 8 -29 12 -12 25 -22 31 -22 6 0 3 7 -5
16 -9 8 -14 19 -11 24 8 12 -9 20 -23 11z"/>
<path d="M27860 29495 c-10 -13 -9 -15 9 -15 12 0 21 6 21 15 0 8 -4 15 -9 15
-5 0 -14 -7 -21 -15z"/>
<path d="M27468 29483 c7 -3 16 -2 19 1 4 3 -2 6 -13 5 -11 0 -14 -3 -6 -6z"/>
<path d="M27615 29480 c4 -6 11 -8 16 -5 14 9 11 15 -7 15 -8 0 -12 -5 -9 -10z"/>
<path d="M28166 29483 c-4 -4 -15 -8 -23 -8 -9 0 -18 -6 -20 -12 -6 -16 16
-17 52 -3 14 5 23 14 20 20 -7 12 -19 13 -29 3z"/>
<path d="M27517 29455 c8 -22 32 -50 38 -44 2 2 -8 18 -21 34 -16 20 -22 23
-17 10z"/>
<path d="M27680 29451 c0 -6 4 -13 10 -16 6 -3 7 1 4 9 -7 18 -14 21 -14 7z"/>
<path d="M27328 29423 c7 -3 16 -2 19 1 4 3 -2 6 -13 5 -11 0 -14 -3 -6 -6z"/>
<path d="M27425 29410 c3 -5 18 -10 32 -10 32 0 28 5 -10 14 -19 4 -26 3 -22
-4z"/>
<path d="M27155 29370 c10 -11 20 -18 23 -16 5 6 -23 36 -34 36 -4 0 1 -9 11
-20z"/>
<path d="M27280 29364 c0 -8 10 -14 26 -14 28 0 25 15 -6 23 -13 3 -20 0 -20
-9z"/>
<path d="M27380 29360 c-9 -6 -10 -10 -3 -10 6 0 15 5 18 10 8 12 4 12 -15 0z"/>
<path d="M26400 29160 c0 -5 4 -10 9 -10 6 0 13 5 16 10 3 6 -1 10 -9 10 -9 0
-16 -4 -16 -10z"/>
<path d="M26375 29130 c-10 -4 -14 -9 -9 -13 12 -7 61 -3 69 5 9 9 -40 15 -60
8z"/>
<path d="M26268 29093 c7 -3 16 -2 19 1 4 3 -2 6 -13 5 -11 0 -14 -3 -6 -6z"/>
<path d="M26500 29039 c0 -5 5 -7 10 -4 6 3 10 8 10 11 0 2 -4 4 -10 4 -5 0
-10 -5 -10 -11z"/>
<path d="M26455 29030 c-3 -5 1 -10 9 -10 9 0 16 5 16 10 0 6 -4 10 -9 10 -6
0 -13 -4 -16 -10z"/>
<path d="M26175 29010 c-13 -5 -14 -9 -5 -9 8 0 24 4 35 9 13 5 14 9 5 9 -8 0
-24 -4 -35 -9z"/>
<path d="M26268 28958 c-16 -5 -28 -13 -28 -18 0 -5 14 -2 30 6 17 9 30 17 30
20 0 2 -1 4 -2 3 -2 0 -15 -5 -30 -11z"/>
<path d="M25992 28941 c-11 -7 -11 -9 1 -14 16 -6 27 0 27 15 0 10 -11 10 -28
-1z"/>
<path d="M25926 28808 c3 -4 14 -8 24 -8 10 0 21 4 24 8 3 5 -8 9 -24 9 -16 0
-27 -4 -24 -9z"/>
<path d="M25871 28780 c-31 -26 -7 -26 26 0 14 11 20 20 12 20 -8 -1 -25 -10
-38 -20z"/>
<path d="M25435 28720 c-3 -5 -1 -10 4 -10 6 0 11 5 11 10 0 6 -2 10 -4 10 -3
0 -8 -4 -11 -10z"/>
<path d="M25208 28603 c7 -3 16 -2 19 1 4 3 -2 6 -13 5 -11 0 -14 -3 -6 -6z"/>
<path d="M25490 28590 c0 -5 7 -10 15 -10 8 0 15 5 15 10 0 6 -7 10 -15 10 -8
0 -15 -4 -15 -10z"/>
<path d="M25225 28572 c-4 -4 -14 -7 -23 -8 -10 -1 -27 -2 -40 -3 -13 0 -20
-6 -17 -11 4 -6 13 -7 23 -1 9 5 29 8 44 6 16 -2 30 1 33 5 7 11 -10 22 -20
12z"/>
<path d="M25031 28516 c-8 -10 -9 -16 -1 -21 5 -3 10 0 10 9 0 8 6 17 13 19 7
4 8 6 1 6 -6 1 -17 -5 -23 -13z"/>
<path d="M25380 28519 c0 -5 5 -7 10 -4 6 3 10 8 10 11 0 2 -4 4 -10 4 -5 0
-10 -5 -10 -11z"/>
<path d="M25308 28493 c7 -3 16 -2 19 1 4 3 -2 6 -13 5 -11 0 -14 -3 -6 -6z"/>
<path d="M25070 28360 c0 -5 5 -10 10 -10 6 0 10 5 10 10 0 6 -4 10 -10 10 -5
0 -10 -4 -10 -10z"/>
<path d="M24666 28292 c-3 -6 3 -12 15 -15 12 -3 19 -1 16 6 -5 15 -24 20 -31
9z"/>
<path d="M24180 27769 c0 -5 5 -7 10 -4 6 3 10 8 10 11 0 2 -4 4 -10 4 -5 0
-10 -5 -10 -11z"/>
<path d="M23688 27603 c7 -3 16 -2 19 1 4 3 -2 6 -13 5 -11 0 -14 -3 -6 -6z"/>
<path d="M23928 27573 c6 -2 18 -2 25 0 6 3 1 5 -13 5 -14 0 -19 -2 -12 -5z"/>
<path d="M32058 29413 c7 -3 16 -2 19 1 4 3 -2 6 -13 5 -11 0 -14 -3 -6 -6z"/>
<path d="M32380 29350 c0 -5 5 -10 10 -10 6 0 10 5 10 10 0 6 -4 10 -10 10 -5
0 -10 -4 -10 -10z"/>
<path d="M32750 29220 c-24 -8 -23 -8 8 -9 17 -1 32 4 32 9 0 11 -5 11 -40 0z"/>
<path d="M32897 29099 c7 -7 15 -10 18 -7 3 3 -2 9 -12 12 -14 6 -15 5 -6 -5z"/>
<path d="M33090 29105 c-13 -14 -19 -25 -14 -25 11 0 47 40 41 46 -2 2 -14 -7
-27 -21z"/>
<path d="M33171 29096 c-9 -11 -8 -15 5 -20 22 -8 24 -8 24 8 0 21 -16 28 -29
12z"/>
<path d="M33128 29093 c7 -3 16 -2 19 1 4 3 -2 6 -13 5 -11 0 -14 -3 -6 -6z"/>
<path d="M33116 29064 c-4 -9 -4 -19 -1 -22 6 -6 35 18 35 29 0 16 -28 10 -34
-7z"/>
<path d="M33040 29053 c0 -6 -8 -10 -17 -9 -10 0 -19 -7 -21 -16 -2 -10 2 -18
10 -18 15 0 42 39 34 48 -3 3 -6 1 -6 -5z"/>
<path d="M33368 29003 c7 -3 16 -2 19 1 4 3 -2 6 -13 5 -11 0 -14 -3 -6 -6z"/>
<path d="M33360 28970 c0 -5 7 -10 15 -10 21 0 19 -17 -2 -24 -10 -3 1 -4 25
-2 32 3 42 1 42 -11 0 -8 4 -11 10 -8 14 9 -11 45 -32 45 -10 0 -18 5 -18 10
0 6 -9 10 -20 10 -11 0 -20 -4 -20 -10z"/>
<path d="M33507 28932 c-9 -2 -17 -9 -17 -16 0 -13 73 -56 96 -56 24 0 16 19
-11 26 -29 7 -33 29 -7 43 14 8 11 10 -13 8 -17 -1 -39 -3 -48 -5z m28 -12 c3
-5 1 -10 -4 -10 -6 0 -11 5 -11 10 0 6 2 10 4 10 3 0 8 -4 11 -10z"/>
<path d="M33350 28911 c0 -10 50 -25 58 -16 8 7 1 11 -30 19 -16 3 -28 2 -28
-3z"/>
<path d="M33590 28915 c0 -4 7 -19 15 -34 8 -16 11 -32 7 -36 -4 -5 -1 -5 6
-1 16 9 15 36 -2 59 -13 17 -26 23 -26 12z"/>
<path d="M33669 28824 c-9 -19 -13 -34 -9 -34 4 0 11 7 14 16 3 8 10 13 15 9
16 -9 21 11 8 28 -10 14 -14 11 -28 -19z"/>
<path d="M33730 28821 c0 -17 4 -32 9 -36 14 -8 25 15 13 27 -6 6 -8 17 -5 24
3 8 0 14 -6 14 -6 0 -11 -13 -11 -29z"/>
<path d="M33780 28760 c20 -13 60 -13 60 0 0 6 -17 10 -37 10 -28 0 -34 -3
-23 -10z"/>
<path d="M33865 28740 c-4 -6 -15 -8 -25 -5 -29 9 -34 -14 -6 -27 22 -9 29 -8
46 7 11 10 20 22 20 27 0 12 -28 10 -35 -2z"/>
<path d="M33920 28710 c0 -5 -7 -10 -16 -10 -8 0 -12 -4 -9 -10 3 -5 16 -10
28 -9 12 0 17 3 10 5 -7 3 -9 12 -6 20 3 8 2 14 -1 14 -3 0 -6 -4 -6 -10z"/>
<path d="M33880 28661 c20 -16 37 -24 39 -18 5 13 -36 47 -57 47 -11 0 -4 -10
18 -29z"/>
<path d="M34081 28624 c0 -11 3 -14 6 -6 3 7 2 16 -1 19 -3 4 -6 -2 -5 -13z"/>
<path d="M34151 28564 c0 -11 3 -14 6 -6 3 7 2 16 -1 19 -3 4 -6 -2 -5 -13z"/>
<path d="M34303 28523 c9 -2 25 -2 35 0 9 3 1 5 -18 5 -19 0 -27 -2 -17 -5z"/>
<path d="M34273 28463 c9 -2 23 -2 30 0 6 3 -1 5 -18 5 -16 0 -22 -2 -12 -5z"/>
<path d="M34640 28309 c0 -5 5 -7 10 -4 6 3 10 8 10 11 0 2 -4 4 -10 4 -5 0
-10 -5 -10 -11z"/>
<path d="M34527 28265 c18 -24 33 -32 33 -17 -1 13 -27 42 -39 42 -8 0 -5 -9
6 -25z"/>
<path d="M34870 28160 c0 -5 5 -10 11 -10 5 0 7 5 4 10 -3 6 -8 10 -11 10 -2
0 -4 -4 -4 -10z"/>
<path d="M34750 28150 c0 -5 5 -10 10 -10 6 0 10 5 10 10 0 6 -4 10 -10 10 -5
0 -10 -4 -10 -10z"/>
<path d="M34906 28032 c-12 -20 18 -47 41 -37 16 8 16 9 -4 12 -12 2 -23 12
-25 21 -3 14 -5 14 -12 4z"/>
<path d="M35218 27973 c7 -3 16 -2 19 1 4 3 -2 6 -13 5 -11 0 -14 -3 -6 -6z"/>
<path d="M35090 27876 c0 -2 7 -7 16 -10 8 -3 12 -2 9 4 -6 10 -25 14 -25 6z"/>
<path d="M35140 27850 c0 -5 5 -10 11 -10 5 0 7 5 4 10 -3 6 -8 10 -11 10 -2
0 -4 -4 -4 -10z"/>
<path d="M35314 27711 c11 -11 23 -21 28 -21 14 0 -1 19 -25 31 -22 12 -22 12
-3 -10z"/>
<path d="M35390 27656 c0 -2 6 -9 13 -15 10 -8 14 -7 14 4 0 8 -6 15 -14 15
-7 0 -13 -2 -13 -4z"/>
<path d="M35434 27631 c0 -9 8 -18 18 -18 10 -1 18 2 18 7 0 5 -8 14 -18 19
-14 7 -18 6 -18 -8z"/>
<path d="M35558 27563 c7 -3 16 -2 19 1 4 3 -2 6 -13 5 -11 0 -14 -3 -6 -6z"/>
<path d="M36059 27066 c14 -15 29 -22 39 -19 12 5 11 8 -5 14 -12 4 -24 12
-28 18 -3 6 -11 11 -17 11 -6 0 -1 -11 11 -24z"/>
<path d="M36120 27018 c0 -9 5 -20 11 -23 17 -11 18 -2 3 19 -12 17 -14 17
-14 4z"/>
<path d="M36200 26932 c0 -14 39 -46 47 -38 4 3 -3 15 -15 26 -23 22 -32 25
-32 12z"/>
<path d="M36265 26870 c3 -5 11 -10 16 -10 6 0 7 5 4 10 -3 6 -11 10 -16 10
-6 0 -7 -4 -4 -10z"/>
<path d="M36296 26836 c3 -7 16 -19 30 -26 13 -7 24 -19 24 -26 0 -13 29 -28
38 -19 3 3 0 5 -6 5 -7 0 -12 6 -12 13 0 18 -34 49 -43 40 -4 -3 -7 -2 -7 4 0
6 -7 13 -14 16 -10 4 -13 1 -10 -7z"/>
<path d="M36495 26640 c-3 -5 -1 -10 4 -10 6 0 11 5 11 10 0 6 -2 10 -4 10 -3
0 -8 -4 -11 -10z"/>
<path d="M36520 26615 c0 -5 16 -27 35 -49 19 -21 35 -34 35 -30 -1 13 -70 91
-70 79z"/>
<path d="M36610 26510 c6 -11 16 -20 22 -20 6 0 3 9 -7 20 -10 11 -20 20 -22
20 -2 0 1 -9 7 -20z"/>
<path d="M36685 26430 c21 -24 26 -25 19 -6 -3 8 -13 17 -22 21 -13 5 -13 2 3
-15z"/>
<path d="M36715 26390 c3 -5 8 -10 11 -10 2 0 4 5 4 10 0 6 -5 10 -11 10 -5 0
-7 -4 -4 -10z"/>
<path d="M36765 26340 c3 -5 8 -10 11 -10 2 0 4 5 4 10 0 6 -5 10 -11 10 -5 0
-7 -4 -4 -10z"/>
<path d="M36800 26286 c0 -2 7 -6 15 -10 8 -3 15 -1 15 4 0 6 -7 10 -15 10 -8
0 -15 -2 -15 -4z"/>
<path d="M37966 24638 c3 -12 10 -26 15 -32 9 -11 22 -35 141 -266 78 -152
151 -287 161 -296 4 -4 0 12 -8 36 -9 24 -19 47 -23 50 -12 9 -62 109 -62 124
0 8 -3 16 -7 18 -5 2 -26 37 -47 78 -22 41 -42 77 -46 80 -4 3 -11 16 -15 30
-4 14 -16 36 -26 49 -11 13 -19 30 -19 38 0 8 -8 27 -19 41 -10 15 -22 37 -25
50 -4 12 -12 22 -17 22 -6 0 -7 -9 -3 -22z"/>
<path d="M38296 24005 c4 -8 8 -15 10 -15 2 0 4 7 4 15 0 8 -4 15 -10 15 -5 0
-7 -7 -4 -15z"/>
<path d="M38341 23924 c0 -11 3 -14 6 -6 3 7 2 16 -1 19 -3 4 -6 -2 -5 -13z"/>
<path d="M38397 23805 c3 -8 9 -12 14 -9 12 7 11 11 -5 17 -10 4 -13 1 -9 -8z"/>
<path d="M38420 23750 c0 -5 5 -10 10 -10 6 0 10 5 10 10 0 6 -4 10 -10 10 -5
0 -10 -4 -10 -10z"/>
<path d="M38450 23696 c0 -8 5 -18 10 -21 6 -3 10 1 10 9 0 8 -4 18 -10 21 -5
3 -10 -1 -10 -9z"/>
<path d="M22541 24723 c-16 -27 -48 -74 -70 -107 -23 -32 -41 -61 -41 -64 0
-3 -20 -36 -45 -73 -25 -37 -45 -72 -45 -78 0 -20 20 -11 30 13 8 23 86 144
100 156 12 11 40 60 40 71 0 6 18 31 40 56 38 44 51 73 31 73 -5 0 -23 -21
-40 -47z"/>
<path d="M22537 24635 c-25 -39 -34 -62 -28 -68 7 -7 13 -4 17 9 4 10 18 33
32 51 13 18 22 40 20 49 -2 12 -15 -1 -41 -41z"/>
<path d="M22402 24438 c-31 -54 -49 -95 -44 -100 6 -6 18 4 29 24 48 80 83
146 83 157 0 27 -18 5 -68 -81z"/>
<path d="M21870 23425 c0 -8 2 -15 4 -15 2 0 6 7 10 15 3 8 1 15 -4 15 -6 0
-10 -7 -10 -15z"/>
<path d="M21635 22830 c7 -36 -24 -140 -40 -134 -7 3 -16 0 -21 -7 -4 -8 -3
-10 4 -5 8 5 12 -2 13 -21 0 -28 0 -28 16 7 47 107 51 125 32 165 -8 17 -9 17
-4 -5z"/>
<path d="M21616 22795 c-9 -26 -7 -32 5 -12 6 10 9 21 6 23 -2 3 -7 -2 -11
-11z"/>
<path d="M21582 22610 c0 -14 2 -19 5 -12 2 6 2 18 0 25 -3 6 -5 1 -5 -13z"/>
<path d="M21562 22570 c0 -14 2 -19 5 -12 2 6 2 18 0 25 -3 6 -5 1 -5 -13z"/>
<path d="M21510 22529 c0 -4 6 -19 14 -33 l14 -27 11 33 c9 29 9 31 -3 15 -14
-18 -15 -18 -25 0 -6 10 -11 15 -11 12z"/>
<path d="M21513 22453 c-16 -6 -17 -33 -3 -33 11 0 26 28 19 34 -2 2 -10 1
-16 -1z"/>
<path d="M21497 22383 c-7 -39 -1 -40 11 -4 6 17 7 31 3 31 -5 0 -11 -12 -14
-27z"/>
<path d="M21446 22325 c-3 -9 -6 -24 -5 -33 0 -9 5 -4 10 12 9 32 6 48 -5 21z"/>
<path d="M21471 22304 c0 -11 3 -14 6 -6 3 7 2 16 -1 19 -3 4 -6 -2 -5 -13z"/>
<path d="M21439 22202 c-3 -20 -2 -29 4 -23 5 5 7 19 5 32 -3 20 -5 19 -9 -9z"/>
<path d="M21366 21967 c3 -10 9 -15 12 -12 3 3 0 11 -7 18 -10 9 -11 8 -5 -6z"/>
<path d="M21175 21387 c-2 -6 -3 -19 -4 -27 0 -8 -4 -33 -10 -55 -16 -61 -14
-115 4 -115 8 0 16 8 16 18 5 59 4 74 -3 78 -14 9 -8 34 8 34 11 0 13 6 9 19
-3 11 -1 22 5 26 15 9 12 22 -5 29 -9 3 -17 0 -20 -7z"/>
<path d="M21118 21205 c-8 -13 -13 -151 -9 -235 2 -58 4 -62 12 -35 5 17 7 50
3 75 -4 37 -3 43 7 33 25 -24 30 -13 27 57 -2 39 -8 70 -13 70 -6 -1 -12 9
-15 22 -3 12 -9 18 -12 13z m23 -128 c-1 -12 -15 -9 -19 4 -3 6 1 10 8 8 6 -3
11 -8 11 -12z"/>
<path d="M21100 20873 c0 -16 -3 -46 -6 -68 -5 -27 -3 -37 4 -30 12 12 22 125
10 125 -4 0 -8 -12 -8 -27z"/>
<path d="M25120 9916 c0 -9 7 -16 16 -16 17 0 14 22 -4 28 -7 2 -12 -3 -12
-12z"/>
<path d="M25366 9817 c-18 -13 -18 -14 -2 -20 22 -9 36 -1 36 19 0 18 -11 18
-34 1z"/>
<path d="M24621 9774 c0 -11 3 -14 6 -6 3 7 2 16 -1 19 -3 4 -6 -2 -5 -13z"/>
<path d="M25505 9700 c-3 -5 -1 -10 4 -10 6 0 11 5 11 10 0 6 -2 10 -4 10 -3
0 -8 -4 -11 -10z"/>
<path d="M23730 9000 c0 -5 5 -10 11 -10 5 0 7 5 4 10 -3 6 -8 10 -11 10 -2 0
-4 -4 -4 -10z"/>
<path d="M24252 8990 c0 -14 2 -19 5 -12 2 6 2 18 0 25 -3 6 -5 1 -5 -13z"/>
<path d="M23780 8950 c0 -5 7 -10 15 -10 8 0 15 5 15 10 0 6 -7 10 -15 10 -8
0 -15 -4 -15 -10z"/>
<path d="M23820 8950 c0 -5 5 -10 10 -10 6 0 10 5 10 10 0 6 -4 10 -10 10 -5
0 -10 -4 -10 -10z"/>
</g>
</svg>
